<?xml version="1.0" encoding="UTF-8" standalone="no"?>
<!-- Generator: Adobe Illustrator 16.0.0, SVG Export Plug-In . SVG Version: 6.00 Build 0)  -->

<svg
   xmlns:dc="http://purl.org/dc/elements/1.1/"
   xmlns:cc="http://creativecommons.org/ns#"
   xmlns:rdf="http://www.w3.org/1999/02/22-rdf-syntax-ns#"
   xmlns:svg="http://www.w3.org/2000/svg"
   xmlns="http://www.w3.org/2000/svg"
   xmlns:sodipodi="http://sodipodi.sourceforge.net/DTD/sodipodi-0.dtd"
   xmlns:inkscape="http://www.inkscape.org/namespaces/inkscape"
   version="1.1"
   id="svg2"
   sodipodi:version="0.32"
   inkscape:version="0.92.4 (5da689c313, 2019-01-14)"
   sodipodi:docname="2019 US vaping lung disease outbreak - cases .svg"
   inkscape:export-xdpi="90"
   inkscape:export-ydpi="90"
   inkscape:output_extension="org.inkscape.output.svg.inkscape"
   inkscape:export-filename="/home/dave/Paula/Desktop/Blank_US_Map.png"
   x="0px"
   y="0px"
   width="961.844px"
   height="582.625px"
   viewBox="0 0 961.844 582.625"
   enable-background="new 0 0 961.844 582.625"
   xml:space="preserve"><metadata
   id="metadata142"><rdf:RDF><cc:Work
       rdf:about=""><dc:format>image/svg+xml</dc:format><dc:type
         rdf:resource="http://purl.org/dc/dcmitype/StillImage" /><dc:title></dc:title></cc:Work></rdf:RDF></metadata>
<defs
   id="defs3">
	
	
		<inkscape:perspective
   id="perspective64"
   inkscape:persp3d-origin="479.5 : 197.66667 : 1"
   inkscape:vp_x="0 : 296.5 : 1"
   inkscape:vp_y="0 : 1000 : 0"
   inkscape:vp_z="959 : 296.5 : 1"
   sodipodi:type="inkscape:persp3d">
		</inkscape:perspective>
</defs>
<sodipodi:namedview
   id="base"
   inkscape:window-height="748"
   inkscape:window-width="1314"
   inkscape:pageshadow="2"
   inkscape:pageopacity="0.0"
   inkscape:window-x="49"
   inkscape:window-y="-3"
   inkscape:current-layer="svg2"
   inkscape:guide-bbox="true"
   fit-margin-right="0"
   fit-margin-bottom="0"
   guidetolerance="10.0"
   gridtolerance="10.0"
   objecttolerance="10.0"
   borderopacity="1.0"
   bordercolor="#666666"
   pagecolor="#ffffff"
   showgrid="false"
   inkscape:zoom="1.2538416"
   inkscape:cx="528.53626"
   inkscape:cy="291.3125"
   showguides="true"
   fit-margin-top="0"
   fit-margin-left="0"
   inkscape:window-maximized="1">
	</sodipodi:namedview>
<path
   id="HI"
   inkscape:connector-curvature="0"
   fill="#264190"
   stroke="#FFFFFF"
   stroke-width="1.25"
   d="M212.21,483.89l3.002-5.504  l3.502-0.5l0.5,1.251l-3.252,4.753H212.21z M227.971,478.136l9.507,4.003l3.252-0.501l2.502-6.004l-1.001-5.254l-6.505-0.75  l-6.254,2.752L227.971,478.136L227.971,478.136z M275.505,493.646l5.754,8.506l3.752-0.5l1.751-0.751l2.251,2.002l5.754-0.25  l1.501-2.252l-4.503-2.752l-3.002-5.755l-3.252-5.504l-9.006,4.503L275.505,493.646L275.505,493.646z M306.777,507.406l2.001-3.002  l7.255,1.501l1-0.75l9.507,1l-0.5,2.002l-4.003,2.251l-6.755-0.5L306.777,507.406z M315.033,515.412l3.002,6.004l4.753-1.751  l0.5-2.502l-2.501-3.252l-5.754-0.501V515.412L315.033,515.412z M325.791,513.661l3.502-4.504l7.255,3.753l6.755,1.752l6.754,4.253  v3.002l-5.504,2.752l-7.505,1.501l-3.752-2.252L325.791,513.661L325.791,513.661z M351.56,537.678l2.501-2.001l5.254,2.502  l11.758,5.504l5.254,3.253l2.501,3.753l3.002,6.755l6.254,4.003l-0.5,2.001l-6.004,5.004l-6.504,2.251l-2.252-1l-4.753,2.752  l-3.753,5.003l-3.502,4.503l-2.752-0.25l-5.504-4.003l-0.5-7.005l1.001-3.752l-2.502-8.757l-3.252-2.752l-0.25-4.004l3.502-1.5  l3.252-4.754l0.75-1.501l-2.502-2.752L351.56,537.678L351.56,537.678z" />
<path
   id="AK"
   inkscape:connector-curvature="0"
   fill="#BFBEBE"
   stroke="#FFFFFF"
   stroke-width="1.25"
   d="M153.327,434.769  l-0.323,85.357l1.617,0.97l3.071,0.162l1.455-1.132h2.586l0.162,2.91l6.952,6.79l0.485,2.586l3.395-1.939l0.646-0.162l0.323-3.07  l1.455-1.617l1.132-0.161l1.94-1.455l3.071,2.103l0.647,2.909l1.94,1.132l1.131,2.426l3.88,1.777l3.395,5.981l2.748,3.88  l2.263,2.748l1.455,3.718l5.012,1.778l5.173,2.102l0.97,4.365l0.485,3.071l-0.97,3.395l-1.778,2.265l-1.617-0.81l-1.455-3.071  l-2.748-1.454l-1.778-1.133l-0.809,0.81l1.455,2.748l0.162,3.719l-1.131,0.484l-1.94-1.939l-2.102-1.294l0.485,1.617l1.293,1.778  l-0.808,0.809c0,0-0.808-0.324-1.293-0.971c-0.485-0.646-2.102-3.396-2.102-3.396l-0.97-2.264c0,0-0.323,1.294-0.97,0.971  c-0.646-0.324-1.293-1.455-1.293-1.455l1.778-1.939l-1.455-1.455v-5.012h-0.808l-0.809,3.396l-1.131,0.485l-0.97-3.72l-0.646-3.718  l-0.809-0.485l0.323,5.658v1.132l-1.455-1.294l-3.557-5.98l-2.102-0.484l-0.646-3.719l-1.617-2.909l-1.617-1.132v-2.264l2.102-1.293  l-0.485-0.323l-2.587,0.646l-3.395-2.425l-2.587-2.91l-4.85-2.586l-4.042-2.587l1.293-3.232v-1.616l-1.778,1.616l-2.91,1.132  l-3.718-1.132l-5.658-2.426h-5.496l-0.647,0.485l-6.466-3.881l-2.102-0.323l-2.748-5.818l-3.557,0.322l-3.557,1.455l0.485,4.526  l1.132-2.91l0.97,0.323l-1.455,4.365l3.233-2.748l0.646,1.615l-3.88,4.365l-1.293-0.323l-0.485-1.939l-1.293-0.808l-1.293,1.131  l-2.748-1.778l-3.072,2.102l-1.778,2.103l-3.395,2.103l-4.688-0.162l-0.485-2.102l3.718-0.646v-1.295l-2.263-0.646l0.97-2.425  l2.263-3.88v-1.778l0.162-0.808l4.365-2.265l0.97,1.293h2.749l-1.293-2.586l-3.718-0.323l-5.011,2.748l-2.425,3.396l-1.778,2.587  l-1.131,2.263l-4.203,1.455l-3.072,2.587l-0.323,1.616l2.263,0.971l0.809,2.103l-2.749,3.231l-6.466,4.204l-7.76,4.203l-2.102,1.131  l-5.335,1.132l-5.335,2.265L67,546.153l-1.455,1.455l-0.485,1.132l-2.748-0.971l-3.233,0.161l-0.808,2.265H57.3l0.324-2.427  l-3.557,1.294l-2.91,0.971l-3.395-1.293l-2.91,1.938h-3.233l-2.102,1.293l-1.616,0.81l-2.102-0.323l-2.586-1.132l-2.263,0.646  l-0.97,0.972l-1.617-1.133v-1.939l3.071-1.293l6.305,0.646l4.365-1.616l2.102-2.102l2.91-0.646l1.778-0.81l2.749,0.162l1.616,1.293  l0.97-0.323l2.263-2.748l3.072-0.971l3.395-0.646l1.293-0.323l0.646,0.484h0.809L67,537.262l4.042-1.455l1.94-3.718l2.264-4.526  l1.616-1.454l0.324-2.587l-1.617,1.294l-3.395,0.646l-0.646-2.425l-1.293-0.323l-0.97,0.97l-0.162,2.91l-1.455-0.162l-1.455-5.818  l-1.293,1.293l-1.131-0.485l-0.323-1.938l-4.042,0.16l-2.102,1.133l-2.586-0.323l1.455-1.455l0.485-2.586l-0.646-1.94l1.455-0.97  l1.293-0.162l-0.646-1.777v-4.364l-0.97-0.972l-0.808,1.455h-6.143l-1.455-1.293l-0.646-3.88l-2.102-3.557v-0.97l2.102-0.81  l0.162-2.102l1.131-1.132l-0.808-0.484l-1.293,0.484l-1.131-2.748l0.97-5.013l4.527-3.232l2.586-1.616l1.94-3.718l2.748-1.294  l2.587,1.132l0.323,2.425l2.425-0.323l3.233-2.425l1.616,0.646l0.97,0.646h1.617l2.263-1.293l0.808-4.365  c0,0,0.324-2.909,0.97-3.395c0.646-0.486,0.97-0.97,0.97-0.97l-1.131-1.94l-2.587,0.809l-3.233,0.81l-1.94-0.485l-3.557-1.778  l-5.012-0.16l-3.556-3.72l0.485-3.88l0.646-2.425l-2.102-1.778l-1.94-3.718l0.485-0.809l6.79-0.485h2.102l0.97,0.971h0.647  l-0.162-1.616l3.88-0.646l2.586,0.323l1.455,1.132l-1.455,2.102l-0.485,1.455l2.748,1.616l5.012,1.778l1.778-0.97l-2.264-4.365  l-0.97-3.233l0.97-0.808l-3.395-1.94l-0.485-1.132l0.485-1.616l-0.809-3.88l-2.91-4.688l-2.425-4.203l2.91-1.939h3.233l1.778,0.646  l4.203-0.162l3.718-3.557l1.131-3.071l3.718-2.425l1.617,0.97l2.748-0.646l3.718-2.102l1.132-0.161l0.97,0.808l4.527-0.16  l2.748-3.072h1.132l3.556,2.426l1.94,2.103l-0.485,1.131l0.646,1.132l1.617-1.616l3.88,0.323l0.323,3.718l1.94,1.455l7.113,0.646  l6.305,4.203l1.455-0.97l5.173,2.587l2.102-0.646l1.94-0.81l4.85,1.939L153.327,434.769L153.327,434.769z M38.224,463.706  l2.102,5.335l-0.162,0.97l-2.91-0.323l-1.778-4.04l-1.778-1.455h-2.425l-0.162-2.587l1.778-2.426l1.131,2.426l1.455,1.454  L38.224,463.706z M35.637,497.17l3.718,0.809l3.718,0.971l0.808,0.97l-1.616,3.719l-3.072-0.162l-3.395-3.557L35.637,497.17z   M14.945,483.105l1.131,2.587l1.132,1.615l-1.132,0.81l-2.102-3.072v-1.938L14.945,483.105L14.945,483.105z M1.204,556.177  l3.395-2.264l3.395-0.97l2.587,0.322l0.485,1.616l1.94,0.485l1.94-1.94l-0.323-1.616l2.748-0.646l2.91,2.586l-1.131,1.778  l-4.365,1.132l-2.749-0.484l-3.718-1.132L3.952,556.5l-1.617,0.323L1.204,556.177L1.204,556.177z M50.187,551.649l1.616,1.939  l2.102-1.617l-1.455-1.293L50.187,551.649z M53.097,554.722l1.132-2.264l2.102,0.323l-0.809,1.939L53.097,554.722L53.097,554.722z   M76.699,552.781l1.455,1.777l0.97-1.132l-0.808-1.938L76.699,552.781z M85.429,540.334l1.131,5.819l2.91,0.809l5.011-2.91  l4.365-2.587l-1.616-2.425l0.485-2.425l-2.102,1.293l-2.91-0.809l1.617-1.132l1.94,0.81l3.88-1.778l0.485-1.455l-2.425-0.809  l0.808-1.939l-2.748,1.939l-4.688,3.557l-4.85,2.91L85.429,540.334L85.429,540.334z M127.784,520.449l2.425-1.455l-0.97-1.778  l-1.778,0.97L127.784,520.449L127.784,520.449z"
   style="fill:#264190;fill-opacity:1" />
<path
   id="FL"
   inkscape:connector-curvature="0"
   sodipodi:nodetypes="cccccccccccccccccccccccccccccccccccccccccccccccccccccccccccccccccccccccccccccccccccccccccccccccccccccccccccccccccccccccccccccccccccccccccccccc"
   fill="#264190"
   stroke="#FFFFFF"
   stroke-width="1.25"
   d="  M754.066,432.236l2.266,7.317l3.729,9.743l5.334,9.376l3.72,6.305l4.85,5.496l4.042,3.72l1.616,2.908l-1.132,1.295l-0.81,1.293  l2.91,7.437l2.91,2.91l2.586,5.335l3.557,5.819l4.527,8.244l1.293,7.599l0.484,11.963l0.646,1.778l-0.323,3.395l-2.426,1.294  l0.324,1.939l-0.647,1.939l0.323,2.426l0.485,1.938l-2.748,3.233l-3.071,1.455l-3.88,0.16l-1.455,1.617l-2.425,0.971l-1.294-0.485  l-1.131-0.97l-0.323-2.909l-0.809-3.396l-3.396-5.173l-3.556-2.264l-3.88-0.323l-0.81,1.294l-3.071-4.365l-0.646-3.557l-2.587-4.041  l-1.778-1.132l-1.617,2.102l-1.776-0.322l-2.103-5.013l-2.91-3.88l-2.909-5.335l-2.587-3.071l-3.557-3.719l2.103-2.425l3.231-5.496  l-0.161-1.616l-4.525-0.971l-1.617,0.646l0.323,0.646l2.587,0.97l-1.455,4.526l-0.81,0.485l-1.777-4.043l-1.293-4.85l-0.323-2.748  l1.455-4.688v-9.538l-3.071-3.718l-1.294-3.071l-5.173-1.294l-1.939-0.646l-1.616-2.587l-3.396-1.616l-1.132-3.395l-2.748-0.971  l-2.425-3.719l-4.203-1.455l-2.91-1.454h-2.587l-4.041,0.809l-0.162,1.938l0.809,0.972l-0.484,1.131l-3.071-0.161l-3.718,3.557  l-3.557,1.939h-3.881l-3.232,1.294l-0.323-2.749l-1.617-1.938l-2.909-1.133l-1.616-1.454l-8.083-3.881l-7.599-1.777l-4.364,0.646  l-5.981,0.485l-5.981,2.102l-3.479,0.613l-0.238-8.05l-2.587-1.94l-1.778-1.777l0.324-3.071l10.186-1.293l25.542-2.91l6.79-0.646  l5.436,0.28l2.587,3.88l1.455,1.455l8.098,0.516l10.82-0.646l21.512-1.293l5.446-0.675l5.107,0.205l0.427,2.909l2.233,0.809  l0.233-4.63l-1.528-4.173l1.31-1.439l5.555,0.454L754.066,432.236L754.066,432.236z M766.612,564.642l2.425-0.646l1.293-0.243  l1.455-2.344l2.344-1.616l1.294,0.484l1.697,0.322l0.404,1.052l-3.477,1.213l-4.203,1.455l-2.345,1.212L766.612,564.642  L766.612,564.642z M780.11,559.63l1.213,1.051l2.748-2.102l5.335-4.203l3.719-3.88l2.505-6.628l0.971-1.697l0.161-3.396  l-0.728,0.484l-0.97,2.829l-1.455,4.607l-3.233,5.254l-4.364,4.203l-3.396,1.939L780.11,559.63L780.11,559.63z" />
<g
   id="MI"
   transform="translate(-5.75,-6.90625)">
	
		<path
   id="MI-"
   inkscape:connector-curvature="0"
   sodipodi:nodetypes="cccccccccccsccccccccccccccccccccccccccccccccccccccccccccccccccccccccccccccccccccccccccccccccccccc"
   fill="#264190"
   stroke="#FFFFFF"
   stroke-width="1.25"
   d="   M697.86,177.237l-3.233-8.245l-2.264-9.053l-2.425-3.233l-2.586-1.778l-1.617,1.132l-3.88,1.778l-1.939,5.012l-2.749,3.718   l-1.131,0.646l-1.455-0.646c0,0-2.587-1.455-2.425-2.102c0.161-0.647,0.483-5.012,0.483-5.012l3.396-1.293l0.808-3.395l0.647-2.586   l2.425-1.617l-0.323-10.023l-1.617-2.263l-1.293-0.809l-0.809-2.102l0.809-0.808l1.616,0.323l0.162-1.617l-2.425-2.263   l-1.294-2.586h-2.586l-4.526-1.455l-5.497-3.395h-2.748l-0.646,0.647l-0.971-0.485l-3.071-2.263l-2.909,1.778l-2.91,2.263   l0.323,3.557l0.97,0.323l2.102,0.485l0.485,0.809l-2.587,0.808l-2.586,0.324l-1.455,1.778l-0.323,2.102l0.323,1.617l0.323,5.497   l-3.558,2.102l-0.646-0.162v-4.203l1.293-2.425l0.646-2.425l-0.808-0.808l-1.939,0.808l-0.971,4.204l-2.748,1.131l-1.777,1.94   l-0.162,0.97l0.646,0.809l-0.646,2.586l-2.263,0.485v1.132l0.808,2.425l-1.132,6.143l-1.616,4.042l0.646,4.688l0.485,1.131   l-0.809,2.425l-0.323,0.809l-0.323,2.748l3.557,5.981l2.91,6.466l1.455,4.85l-0.809,4.688l-0.97,5.981l-2.427,5.173l-0.323,2.748   l-3.259,3.085l4.409-0.162l21.418-2.264l7.278-0.987l0.097,1.667l6.853-1.213l10.298-1.503l3.854-0.461l0.139-0.587l0.161-1.455   l2.103-3.718l2-1.738l-0.223-5.052l1.598-1.597l1.091-0.343l0.222-3.557l1.536-3.031l1.051,0.606l0.162,0.646l0.809,0.162   l1.939-0.97L697.86,177.237L697.86,177.237z" />
	
		<path
   id="SP-"
   inkscape:label="#SP-"
   inkscape:connector-curvature="0"
   sodipodi:nodetypes="ccccccccccccccsccccccccccccccccccccccccccccccccccccccccccccccccccccccccccccccccccccccccccccccccccccccccccccccc"
   fill="#264190"
   stroke="#FFFFFF"
   stroke-width="1.25"
   d="   M581.619,82.059l1.829-2.058l2.172-0.8l5.373-3.887l2.286-0.571l0.457,0.457l-5.145,5.144l-3.314,1.943l-2.059,0.915   L581.619,82.059L581.619,82.059z M667.794,114.187l0.646,2.506l3.232,0.162l1.293-1.212c0,0-0.081-1.455-0.404-1.617   c-0.322-0.162-1.615-1.859-1.615-1.859l-2.184,0.242l-1.615,0.162l-0.324,1.132L667.794,114.187L667.794,114.187z M567.492,111.213   l0.716-0.581l2.749-0.809l3.556-2.263v-0.97l0.647-0.646l5.98-0.97l2.426-1.94l4.363-2.102l0.162-1.293l1.939-2.91l1.778-0.808   l1.294-1.778l2.263-2.263l4.365-2.425l4.688-0.485l1.131,1.132l-0.322,0.97l-3.719,0.97l-1.455,3.071l-2.264,0.809l-0.484,2.425   l-2.425,3.233l-0.323,2.587l0.809,0.485l0.97-1.132l3.557-2.91l1.294,1.293h2.264l3.232,0.97l1.455,1.132l1.455,3.071l2.748,2.749   l3.88-0.162l1.455-0.97l1.616,1.293l1.617,0.485l1.293-0.808h1.132l1.616-0.97l4.042-3.557l3.395-1.131l6.628-0.323l4.526-1.94   l2.587-1.293l1.455,0.162v5.658l0.484,0.323l2.91,0.808l1.939-0.485l6.144-1.617l1.132-1.131l1.455,0.485v6.951l3.232,3.072   l1.293,0.646l1.293,0.97l-1.293,0.323l-0.809-0.323l-3.718-0.485l-2.103,0.647l-2.264-0.162l-3.233,1.455h-1.777l-5.819-1.293   l-5.173,0.162l-1.94,2.586l-6.951,0.647l-2.425,0.808l-1.132,3.072l-1.293,1.131l-0.485-0.162l-1.454-1.617l-4.526,2.425h-0.646   l-1.132-1.616l-0.809,0.162l-1.939,4.365l-0.97,4.042l-3.182,7.001l-1.178-1.035l-1.371-1.031l-1.94-10.288l-3.544-1.37   l-2.053-2.286l-12.12-2.743l-2.855-1.03l-8.229-2.173l-7.892-1.143L567.492,111.213L567.492,111.213z" />
</g>
<path
   id="ME"
   inkscape:connector-curvature="0"
   sodipodi:nodetypes="ccccccccsccccccccccccccccccccccccccccccccccccccccccccccccccccccccccccccccccccccccccccccccsccccc"
   fill="#264190"
   stroke="#FFFFFF"
   stroke-width="1.25"
   d="  M917.09,71.924l1.939,2.102l2.264,3.718v1.94l-2.102,4.688l-1.94,0.647l-3.395,3.071l-4.851,5.497c0,0-0.646,0-1.293,0  c-0.646,0-0.971-2.102-0.971-2.102l-1.778,0.162l-0.97,1.455l-2.425,1.455l-0.971,1.455l1.616,1.455l-0.483,0.646l-0.485,2.749  l-1.94-0.162v-1.617l-0.322-1.293l-1.455,0.323l-1.777-3.233l-2.102,1.293l1.293,1.455l0.322,1.132l-0.809,1.293l0.323,3.072  l0.162,1.617l-1.617,2.586l-2.909,0.485l-0.323,2.91l-5.335,3.071l-1.293,0.485l-1.617-1.455l-3.07,3.556l0.97,3.233l-1.455,1.293  l-0.161,4.365l-1.124,6.259l-2.462-1.156l-0.485-3.072l-3.88-1.131l-0.322-2.749l-7.274-23.441l-4.698-14.64l1.42-0.118l1.515,0.41  v-2.587l1.309-4.496l2.587-4.688l1.455-4.042l-1.939-2.425v-5.981l0.809-0.97l0.808-2.749l-0.161-1.455l-0.161-4.85l1.777-4.85  l2.91-8.892l2.103-4.203h1.293l1.294,0.162v1.132l1.293,2.263l2.748,0.646l0.809-0.808v-0.97l4.041-2.91l1.778-1.778l1.455,0.162  l5.98,2.425l1.94,0.97l9.053,29.907h5.981l0.809,1.94l0.161,4.85l2.91,2.263h0.809l0.161-0.485l-0.485-1.132L917.09,71.924  L917.09,71.924z M896.158,102.072l1.535-1.536l1.375,1.051l0.564,2.425l-1.697,0.889L896.158,102.072z M902.867,96.171l1.778,1.859  c0,0,1.293,0.081,1.293-0.242c0-0.323,0.241-2.021,0.241-2.021l0.891-0.808l-0.81-1.778l-2.021,0.728L902.867,96.171z" />
<path
   id="NY"
   inkscape:connector-curvature="0"
   fill="#264190"
   stroke="#FFFFFF"
   stroke-width="1.25"
   d="M824.63,181.839  l-1.132-0.97l-2.587-0.162l-2.264-1.94l-1.631-6.129l-3.459,0.09l-2.442-2.708l-19.386,4.382l-43.001,8.73l-7.53,1.228l-0.738-6.468  l1.429-1.125l1.294-1.132l0.97-1.617l1.777-1.131l1.94-1.778l0.484-1.617l2.102-2.748l1.132-0.97l-0.161-0.97l-1.294-3.072  l-1.777-0.162l-1.939-6.143l2.91-1.778l4.364-1.455l4.042-1.293l3.231-0.485l6.305-0.162l1.94,1.293l1.616,0.162l2.102-1.293  l2.587-1.131l5.173-0.485l2.103-1.778l1.778-3.233l1.616-1.94h2.103l1.938-1.131l0.162-2.264l-1.455-2.102l-0.322-1.455l1.132-2.102  v-1.455h-1.778l-1.778-0.809l-0.809-1.131l-0.162-2.587l5.82-5.496l0.646-0.809l1.455-2.91l2.91-4.526l2.748-3.718l2.102-2.425  l2.415-1.826l3.081-1.246l5.497-1.293l3.232,0.162l4.526-1.455l7.564-2.071l0.521,4.979l2.426,6.467l0.808,5.173l-0.97,3.88  l2.587,4.526l0.808,2.102l-0.808,2.91l2.909,1.293l0.646,0.323l3.071,10.993l-0.536,5.06l-0.485,10.832l0.81,5.497l0.809,3.557  l1.454,7.274v8.083l-1.131,2.263l1.839,1.993l0.797,1.678l-1.939,1.778l0.322,1.293l1.295-0.323l1.453-1.293l2.265-2.587  l1.132-0.646l1.616,0.646l2.264,0.162l7.921-3.88l2.91-2.749l1.293-1.455l4.203,1.616l-3.396,3.557l-3.88,2.91l-7.112,5.334  l-2.587,0.97l-5.819,1.94l-4.041,1.131l-1.175-0.533l-0.244-3.688l0.484-2.749l-0.162-2.102l-2.813-1.699l-4.526-0.97l-3.88-1.131  L824.63,181.839L824.63,181.839z" />
<path
   id="PA"
   inkscape:connector-curvature="0"
   sodipodi:nodetypes="cccccccccccccccccccccccccccccccccccccccccccc"
   fill="#264190"
   stroke="#FFFFFF"
   stroke-width="1.25"
   d="  M819.374,217.786l1.309-0.271l2.329-1.253l1.212-2.483l1.616-2.263l3.233-3.071v-0.809l-2.425-1.617l-3.558-2.425l-0.97-2.586  l-2.748-0.323l-0.162-1.132l-0.809-2.748l2.264-1.132l0.162-2.425l-1.294-1.293l0.162-1.616l1.938-3.072v-3.072l2.698-2.646  l-0.921-0.675l-2.523-0.193l-2.295-1.94l-1.55-6.116l-3.505,0.101l-2.455-2.704l-18.091,4.198l-43.002,8.729l-8.893,1.455  l-0.62-6.521l-5.361,5.068l-1.294,0.485l-4.202,3.009l2.911,19.138l2.48,9.729l3.571,19.261l3.27-0.638l11.943-1.502l37.927-7.665  l14.877-2.823l8.301-1.623l0.268-0.239l2.102-1.616L819.374,217.786L819.374,217.786z" />
<path
   id="VA"
   inkscape:connector-curvature="0"
   sodipodi:nodetypes="ccccccccccccccccccccccccccccccccccccccccccccccccccccccccccccccccccccccccccccccccccc"
   fill="#264190"
   stroke="#FFFFFF"
   stroke-width="1.25"
   d="  M825.889,259.163l-0.144-1.947l6.453-2.55l-0.771,3.218l-2.92,3.779l-0.418,4.586l0.462,3.391l-1.828,4.978l-2.164,1.916  l-1.471-4.641l0.446-5.449l1.587-4.183L825.889,259.163L825.889,259.163z M829.229,287.464l-58.176,12.575l-37.427,5.279  l-6.679-0.375l-2.585,1.927l-7.339,0.221l-8.383,0.979l-10.915,1.613l10.47-5.61l-0.014-2.074l1.521-2.146l10.554-11.5l3.947,4.477  l3.783,0.965l2.543-1.141l2.236-1.313l2.537,1.344l3.914-1.428l1.877-4.557l2.602,0.54l2.854-2.131l1.8,0.493l2.826-3.676  l0.35-2.083l-0.964-1.276l1.003-1.867l5.273-12.277l0.616-5.735l1.229-0.523l2.178,2.443l3.937-0.301l1.93-7.573l2.794-0.561  l1.05-2.741l2.58-2.347l2.771-5.695l0.085-5.067l9.821,3.823c0.682,0.34,0.833-5.049,0.833-5.049l3.653,1.598l0.067,2.938  l5.784,1.299l2.133,1.176l1.659,2.056l-0.653,3.648l-1.947,2.591l0.108,2.059l0.591,1.853l4.979,1.269l4.451,0.04l3.068,0.958  l1.943,0.31l0.715,3.088l3.19,0.402l0.867,1.2l-0.439,4.69l1.375,1.103l-0.479,1.931l1.229,0.79l-0.222,1.385l-2.694-0.095  l0.089,1.616l2.281,1.543l0.121,1.412l1.773,1.786l0.49,2.524l-2.553,1.381l1.572,1.494l5.801-1.686L829.229,287.464  L829.229,287.464z" />
<path
   id="WV"
   inkscape:connector-curvature="0"
   sodipodi:nodetypes="ccccccccccccccccccccccccccccccccccccccccscccccccccccccccccccccccccccccccccccccccccc"
   fill="#264190"
   stroke="#FFFFFF"
   stroke-width="1.25"
   d="  M755.436,232.061l1.112,4.945l1.083,6.031l2.13-2.581l2.265-3.072l2.538-0.615l1.454-1.455l1.778-2.586l1.445,0.646l2.91-0.323  l2.586-2.102l2.007-1.453l1.846-0.485l1.304,1.017l3.645,1.822l1.939,1.778l1.373,1.293l-0.762,5.555l-5.835-2.542l-4.245-1.622  l-0.101,5.178l-2.748,5.537l-2.53,2.427l-1.19,2.75l-2.645,0.5l-0.897,3.602l-1.043,3.95l-3.969,0.34l-2.324-2.438l-1.07,0.559  l-0.633,5.47l-1.351,3.535l-4.959,10.955l0.897,1.161l-0.206,1.908l-2.81,3.885l-1.809-0.544l-2.969,2.16l-2.542-0.572l-1.999,4.556  c0,0-3.261,1.43-3.923,1.367c-0.161-0.015-2.471-1.249-2.471-1.249l-2.336,1.379l-2.41,1.045l-3.743-0.891l-1.122-1.168  l-2.192-3.023l-3.143-1.988l-1.711-3.623l-4.285-3.468l-0.646-2.263l-2.587-1.455l-0.808-1.617l-0.243-5.254l2.183-0.081l1.94-0.808  l0.161-2.748l1.617-1.455l0.16-5.012l0.971-3.88l1.294-0.646l1.293,1.132l0.484,1.778l1.778-0.97l0.484-1.617l-1.132-1.778v-2.425  l0.971-1.293l2.263-3.395l1.294-1.455l2.103,0.485l2.263-1.617l3.071-3.395l2.264-3.88l0.323-5.658l0.484-5.012v-4.688l-1.132-3.071  l0.97-1.455l1.284-1.293l3.491,19.827l4.631-0.751L755.436,232.061L755.436,232.061z" />
<path
   id="OH"
   inkscape:connector-curvature="0"
   sodipodi:nodetypes="cccccccccccccccccccccccccccccccccccccccccccccccccccccccccccccccc"
   fill="#264190"
   stroke="#FFFFFF"
   stroke-width="1.25"
   d="  M729.575,186.422l-6.094,4.054l-3.881,2.263l-3.395,3.718l-4.042,3.88l-3.233,0.808l-2.908,0.485l-5.497,2.587l-2.103,0.162  l-3.395-3.072l-5.173,0.646l-2.587-1.455l-2.382-1.351l-4.893,0.704l-10.185,1.617l-11.207,2.185l1.293,14.63l1.777,13.741  l2.587,23.44l0.565,4.832l4.122-0.129l2.426-0.808l3.363,1.503l2.069,4.365l5.14-0.018l1.893,2.119l1.761-0.065l2.538-1.341  l2.506,0.371l5.421,0.483l1.727-2.133l2.346-1.293l2.07-0.681l0.647,2.749l1.777,0.97l3.477,2.344l2.183-0.081l1.333-0.493  l0.186-2.761l1.585-1.455l0.1-4.792l1.023-4.109l1.3-0.601l1.32,1.147l0.538,1.697l1.72-1.038l0.438-1.46l-1.117-1.903l0.066-2.314  l0.749-1.072l2.153-3.306l1.05-1.543l2.102,0.485l2.265-1.617l3.07-3.395l2.771-4.079l0.319-5.055l0.484-5.012l-0.176-5.307  l-0.955-2.895l0.351-1.19l1.806-1.75l-2.289-9.047L729.575,186.422L729.575,186.422z" />
<path
   id="IN"
   inkscape:connector-curvature="0"
   fill="#264190"
   stroke="#FFFFFF"
   stroke-width="1.25"
   d="M613.819,293.064  l0.064-2.858l0.485-4.526l2.263-2.91l1.778-3.88l2.587-4.203l-0.485-5.82l-1.777-2.748l-0.323-3.233l0.809-5.497l-0.484-6.951  l-1.293-16.004l-1.293-15.358l-0.972-11.72l3.071,0.889l1.455,0.97l1.131-0.323l2.102-1.94l2.83-1.617l5.094-0.162l21.984-2.263  l5.576-0.533l1.503,15.956l4.251,36.842l0.599,5.771l-0.37,2.263l1.228,1.795l0.097,1.373l-2.521,1.6l-3.539,1.551l-3.202,0.55  l-0.599,4.867l-4.575,3.313l-2.796,4.01l0.323,2.376l-0.581,1.535h-3.327l-1.585-1.617l-2.493,1.262l-2.685,1.503l0.162,3.055  l-1.193,0.258l-0.469-1.018l-2.167-1.503l-3.25,1.341l-1.552,3.006l-1.438-0.809l-1.455-1.599l-4.464,0.485l-5.594,0.97  L613.819,293.064L613.819,293.064z" />
<path
   id="IL"
   inkscape:connector-curvature="0"
   sodipodi:nodetypes="ccccccccccccccccccccccccccccccccccccccccccccccccccccccccccccccccccccccccccccccccccc"
   fill="#264190"
   stroke="#FFFFFF"
   stroke-width="1.25"
   d="  M613.791,293.436l0.031-3.229l0.566-4.646l2.333-2.916l1.866-4.076l2.233-3.995l-0.372-5.252l-2.005-3.542l-0.098-3.347l0.695-5.27  l-0.825-7.179l-1.065-15.777l-1.294-15.017l-0.923-11.64l-0.271-0.921l-0.809-2.587l-1.293-3.718l-1.616-1.778l-1.455-2.587  l-0.234-5.489l-45.796,2.598l0.229,2.372l2.286,0.686l0.915,1.144l0.457,1.829l3.888,3.43l0.686,2.286l-0.686,3.429l-1.829,3.658  l-0.687,2.515l-2.287,1.829l-1.827,0.686l-5.26,1.372l-0.686,1.829l-0.688,2.058l0.688,1.372l1.829,1.6l-0.229,4.115l-1.829,1.601  l-0.687,1.6v2.744l-1.829,0.457l-1.6,1.144l-0.229,1.372l0.229,2.058l-1.716,1.314l-1.028,2.801l0.458,3.658l2.286,7.316  l7.314,7.544l5.487,3.658l-0.229,4.344l0.914,1.372l6.401,0.458l2.744,1.372l-0.688,3.658l-2.286,5.944l-0.686,3.201l2.286,3.887  l6.4,5.258l4.572,0.688l2.059,5.028l2.058,3.2l-0.914,2.973l1.6,4.115l1.829,2.058l1.414-0.881l0.908-2.075l2.213-1.746l2.131-0.614  l2.604,1.18l3.627,1.376l1.188-0.298l0.2-2.259l-1.288-2.412l0.306-2.377l1.838-1.348l3.022-0.811l1.262-0.459l-0.613-1.387  l-0.791-2.354l1.433-0.979L613.791,293.436L613.791,293.436z" />
<path
   id="WI"
   inkscape:connector-curvature="0"
   sodipodi:nodetypes="ccccccccccccccccccccccccccccccccccccccccccccccccccccccccccccccccccccccccccccccccccccccccc"
   fill="#264190"
   stroke="#FFFFFF"
   stroke-width="1.25"
   d="  M609.315,190.462l-0.066-3.157l-1.179-4.527l-0.646-6.143l-1.132-2.425l0.97-3.072l0.81-2.91l1.455-2.586l-0.647-3.395l-0.646-3.557  l0.484-1.778l1.939-2.425l0.162-2.748l-0.81-1.293l0.646-2.586l-0.452-4.171l2.748-5.658l2.91-6.79l0.162-2.263l-0.324-0.97  l-0.809,0.485l-4.203,6.305l-2.747,4.042l-1.94,1.778l-0.809,2.263l-1.955,0.808l-1.131,1.94l-1.455-0.323l-0.162-1.778l1.294-2.425  l2.102-4.688l1.778-1.617l0.99-2.358l-2.562-1.901l-1.975-10.367l-3.547-1.342l-1.947-2.308l-12.129-2.722l-2.876-1.012  l-8.214-2.167l-7.917-1.159l-3.767-5.13l-0.75,0.554l-1.197-0.162l-0.646-1.131l-1.334,0.296l-1.132,0.162l-1.778,0.97l-0.97-0.647  l0.646-1.94l1.939-3.071l1.132-1.132l-1.938-1.455l-2.103,0.808l-2.91,1.94l-7.437,3.233l-2.91,0.646l-2.909-0.485l-0.981-0.878  l-2.116,2.835l-0.229,2.744v8.459l-1.144,1.601l-5.258,3.886l-2.286,5.944l0.457,0.229l2.515,2.058l0.687,3.201l-1.829,3.201v3.887  l0.458,6.63l2.972,2.972h3.43l1.829,3.201l3.43,0.458l3.887,5.715l7.087,4.115l2.058,2.744l0.915,7.43l0.687,3.315l2.286,1.601  l0.229,1.372l-2.058,3.429l0.229,3.201l2.516,3.887l2.515,1.143l2.972,0.458l1.343,1.38L609.315,190.462L609.315,190.462z" />
<path
   id="NC"
   inkscape:connector-curvature="0"
   sodipodi:nodetypes="cccccccccccccccccccccccccccccccccccccccccccccccccccccccccccscccccccccccccccccccccccccccccccc"
   fill="#264190"
   stroke="#FFFFFF"
   stroke-width="1.25"
   d="  M829.231,287.409l2.085,4.917l3.557,6.467l2.425,2.425l0.646,2.265l-2.426,0.16l0.81,0.646l-0.323,4.203l-2.587,1.294l-0.646,2.102  l-1.293,2.91l-3.72,1.616l-2.425-0.323l-1.455-0.162l-1.616-1.293l0.323,1.293v0.972h1.939l0.809,1.293l-1.938,6.305h4.202  l0.646,1.616l2.263-2.264l1.294-0.484l-1.939,3.557l-3.071,4.851h-1.293l-1.132-0.484l-2.748,0.646l-5.174,2.426l-6.467,5.335  l-3.396,4.688l-1.939,6.467l-0.484,2.426l-4.688,0.484l-5.453,1.336l-9.946-8.202l-12.609-7.598l-2.91-0.809l-12.608,1.455  l-4.276,0.75l-1.616-3.233l-2.971-2.116l-16.489,0.484l-7.273,0.809l-9.054,4.526l-6.144,2.587l-21.178,2.586l0.5-4.054l1.777-1.455  l2.748-0.646l0.646-3.719l4.204-2.748l3.88-1.455l4.203-3.557l4.363-2.103l0.646-3.07l3.88-3.88l0.646-0.161  c0,0,0,1.131,0.809,1.131s1.939,0.323,1.939,0.323l2.264-3.557l2.102-0.646l2.265,0.324l1.615-3.558l2.91-2.587l0.485-2.102  l0.188-3.648l4.276-0.021l7.198-0.855l15.758-2.253l15.136-2.086l21.642-4.72l19.982-4.259l11.177-2.406L829.231,287.409  L829.231,287.409z M833.502,320.616l2.587-2.506l3.152-2.587l1.535-0.646l0.161-2.021l-0.646-6.145l-1.455-2.344l-0.646-1.859  l0.729-0.242l2.748,5.496l0.404,4.446l-0.162,3.395l-3.396,1.536l-2.829,2.426l-1.132,1.212L833.502,320.616L833.502,320.616z" />
<path
   id="TN"
   inkscape:connector-curvature="0"
   sodipodi:nodetypes="ccccccccccccccccccccccccccccccsccccccccccccc"
   fill="#264190"
   stroke="#FFFFFF"
   stroke-width="1.25"
   d="  M690.928,311.348l-51.893,5.013l-15.76,1.777l-4.621,0.514l-3.868-0.027l-0.222,4.101l-8.187,0.265l-6.951,0.646l-8.091-0.124  l-1.414,7.073l-1.694,5.48l-3.295,2.751l-1.349,4.381l-0.323,2.586l-4.041,2.264l1.455,3.558l-0.971,4.363l-0.968,0.79  l108.157-10.407l0.403-3.954l1.812-1.49l2.834-0.75l0.672-3.717l4.099-2.705l4.047-1.494l4.084-3.57l4.438-2.024l0.521-3.067  l4.064-3.984l0.551-0.113c0,0,0.031,1.132,0.84,1.132c0.81,0,1.94,0.354,1.94,0.354l2.263-3.588l2.07-0.646l2.274,0.295l1.6-3.533  l2.955-2.645l0.422-1.938l0.309-3.711l-2.146-0.2l-2.603,2.028l-6.992,0.028l-18.359,2.388L690.928,311.348L690.928,311.348z" />
<path
   id="AR"
   inkscape:connector-curvature="0"
   sodipodi:nodetypes="cccccccccccccccccccccccccccccccccccccccc"
   fill="#264190"
   stroke="#FFFFFF"
   stroke-width="1.25"
   d="  M588.075,336.146l-3.98,0.717l-5.111-0.635l0.421-1.603l2.979-2.566l0.943-3.655l-1.828-2.973l-78.418,2.516l1.601,6.857v8.23  l1.371,10.974l0.229,37.838l2.287,1.942l2.972-1.371l2.743,1.143l0.681,6.573l55.621-1.141l1.146-2.09l-0.286-3.55l-1.826-2.973  l1.599-1.484l-1.599-2.513l0.685-2.51l1.368-5.604l2.52-2.063l-0.687-2.284l3.657-5.372l2.744-1.368l-0.114-1.493l-0.345-1.825  l2.855-5.6l2.403-1.257l0.384-3.428l1.771-1.241l-3.145-0.483l-1.342-4.012l2.804-2.377l0.552-2.019l1.278-4.047L588.075,336.146  L588.075,336.146z" />
<path
   id="MO"
   inkscape:connector-curvature="0"
   sodipodi:nodetypes="cccccccccccccccccccccccccccccccccccccccccccccccccccccccccccc"
   fill="#264190"
   stroke="#FFFFFF"
   stroke-width="1.25"
   d="  M552.69,241.207l-2.521-3.087l-1.143-2.286l-64.357,2.4l-2.286,0.114l1.258,2.515l-0.229,2.286l2.516,3.887l3.086,4.115l3.087,2.743  l2.161,0.229l1.496,0.915v2.972l-1.829,1.601l-0.457,2.286l2.059,3.429l2.515,2.972l2.517,1.829l1.37,11.66l0.314,36.072  l0.229,4.688l0.457,5.383l22.435-0.865l23.206-0.688l20.805-0.801l11.654-0.23l2.17,3.428l-0.686,3.307l-3.087,2.403l-0.572,1.838  l5.379,0.457l3.895-0.688l1.718-5.493l0.651-5.855l2.098-2.557l2.598-1.485l0.051-3.051l1.017-1.938l-1.693-2.544l-1.331,0.984  l-1.993-2.228l-1.284-4.76l0.801-2.519l-1.943-3.428l-1.831-4.576l-4.799-0.8l-6.97-5.598l-1.719-4.113l0.799-3.201l2.061-6.058  l0.459-2.863l-1.949-1.031l-6.854-0.798l-1.028-1.712l-0.111-4.23l-5.486-3.431l-6.977-7.771l-2.286-7.316l-0.229-4.225  L552.69,241.207L552.69,241.207z" />
<path
   id="GA"
   inkscape:connector-curvature="0"
   sodipodi:nodetypes="ccccccccccccccccccccccccccccccccccccccccccccccccccccccccccccccccccccccc"
   fill="#264190"
   stroke="#FFFFFF"
   stroke-width="1.25"
   d="  M666.542,348.646v2.183l0.162,2.102l0.646,3.396l3.396,7.922l2.426,9.861l1.454,6.143l1.617,4.85l1.455,6.952l2.102,6.306  l2.586,3.395l0.485,3.396l1.938,0.809l0.162,2.102l-1.777,4.851l-0.485,3.232l-0.161,1.94l1.616,4.364l0.323,5.335l-0.809,2.425  l0.646,0.809l1.455,0.81l0.204,3.218l2.232,3.35l2.25,2.162l7.922,0.161l10.819-0.646l21.513-1.293l5.446-0.676l4.577,0.028  l0.161,2.909l2.587,0.809l0.323-4.364l-1.616-4.526l1.131-1.616l5.82,0.81l4.978,0.316l-0.775-6.299l2.264-10.022l1.455-4.204  l-0.485-2.586l3.335-6.243l-0.511-1.353l-1.913,0.704l-2.587-1.293l-0.646-2.102l-1.293-3.558l-2.264-2.102l-2.586-0.646  l-1.617-4.851l-2.925-6.335l-4.203-1.939l-2.102-1.939l-1.293-2.586l-2.103-1.94l-2.264-1.293l-2.264-2.91l-3.071-2.263  l-4.526-1.778l-0.483-1.455l-2.427-2.91l-0.483-1.454l-3.396-4.972l-3.52,0.101l-3.755-2.356l-1.418-1.293l-0.323-1.778l0.87-1.938  l2.227-1.11l-0.634-2.098L666.542,348.646L666.542,348.646z" />
<path
   id="SC"
   inkscape:connector-curvature="0"
   sodipodi:nodetypes="cccccccccccccccccccccccccccccccccccccccccccccccccccccc"
   fill="#264190"
   stroke="#FFFFFF"
   stroke-width="1.25"
   d="  M759.193,401.259l-1.777,0.97l-2.586-1.294l-0.647-2.102l-1.293-3.557l-2.263-2.103l-2.587-0.646l-1.616-4.851l-2.749-5.98  l-4.203-1.94l-2.102-1.938l-1.293-2.587l-2.103-1.939l-2.264-1.293l-2.263-2.91l-3.071-2.264l-4.527-1.778l-0.483-1.455  l-2.425-2.909l-0.485-1.454l-3.395-5.174l-3.396,0.161l-4.041-2.425l-1.294-1.293l-0.323-1.778l0.81-1.939l2.264-0.971l-0.511-2.288  l5.768-2.338l9.115-4.589l7.775-0.809l16.113-0.422l2.639,1.877l1.68,3.357l4.302-0.608l12.61-1.455l2.909,0.808l12.609,7.6  l10.107,8.121l-5.421,5.459l-2.587,6.143l-0.484,6.305l-1.617,0.81l-1.131,2.748l-2.426,0.646l-2.103,3.558l-2.748,2.748  l-2.263,3.396l-1.617,0.808l-3.557,3.396l-2.909,0.161l0.97,3.232l-5.012,5.496L759.193,401.259L759.193,401.259z" />
<path
   id="KY"
   inkscape:connector-curvature="0"
   sodipodi:nodetypes="ccccccccccccccccccccccccccccccccccccccccccccccccccccccccccccccccccccccccccccccccccccccc"
   fill="#264190"
   stroke="#FFFFFF"
   stroke-width="1.25"
   d="  M720.244,288.364l-2.293,2.402l-3.578,3.994l-4.925,5.465l-1.216,1.717l-0.063,2.102l-4.38,2.164l-5.658,3.396l-7.23,1.798  l-51.868,4.897l-15.76,1.778l-4.621,0.513l-3.868-0.026l-0.229,4.22l-8.179,0.145l-6.951,0.646l-7.987-0.061l1.208-1.319l2.5-1.541  l0.229-3.2l0.914-1.829l-1.606-2.539l0.803-1.907l2.263-1.777l2.102-0.646l2.749,1.293l3.558,1.294l1.131-0.323l0.162-2.264  l-1.293-2.425l0.322-2.263l1.939-1.455l2.587-0.646l1.616-0.646l-0.808-1.778l-0.647-1.939l1.507-0.996  c0.003-0.037,1.254-3.521,1.238-3.658l3.054-1.478l5.319-0.97l4.494-0.485l1.393,1.627l1.528,0.872l1.591-3.109l3.188-1.283  l2.204,1.484l0.411,0.999l1.173-0.264l-0.16-2.953l3.131-1.749l2.146-1.074l1.529,1.661l3.318-0.044l0.588-1.571l-0.368-2.263  l2.601-3.999l4.776-3.438l0.706-4.835l2.926-0.456l3.791-1.646l2.443-1.708l-0.198-1.565l-1.143-1.455l0.564-2.995l4.187-0.118  l2.3-0.746l3.348,1.429l2.054,4.365l5.133,0.011l2.052,2.208l1.615-0.147l2.602-1.278l5.237,0.573l2.575,0.218l1.688-2.056  l2.617-1.426l1.882-0.707l0.646,2.837l2.044,1.058l2.643,2.083l0.118,5.673l0.808,1.572l2.59,1.557l0.771,2.294l4.16,3.437  l1.806,3.623L720.244,288.364L720.244,288.364z" />
<path
   id="AL"
   inkscape:connector-curvature="0"
   sodipodi:nodetypes="cccccccccccccccccccccccccccccccccccccccccccccccc"
   fill="#BFBEBE"
   stroke="#FFFFFF"
   stroke-width="1.25"
   d="  M625.557,453.51l-1.49-14.321l-2.748-18.753l0.161-14.063l0.81-31.039l-0.162-16.651l0.165-6.419l44.484-3.619l-0.147,2.184  l0.161,2.102l0.646,3.396l3.396,7.921l2.425,9.861l1.455,6.144l1.616,4.85l1.455,6.951l2.102,6.307l2.587,3.395l0.484,3.395  l1.94,0.81l0.16,2.102l-1.777,4.851l-0.484,3.232l-0.162,1.939l1.617,4.365l0.323,5.335l-0.81,2.425l0.646,0.809l1.455,0.809  l0.328,2.89l-5.599-0.354l-6.79,0.646l-25.542,2.909l-10.41,1.407l-0.223,2.877l1.778,1.777l2.586,1.94l0.581,7.936l-5.542,2.572  l-2.748-0.323l2.748-1.938v-0.971l-3.071-5.98l-2.264-0.646l-1.454,4.364l-1.294,2.748l-0.646-0.161h-2.747V453.51z"
   style="fill:#264190;fill-opacity:1" />
<path
   id="LA"
   inkscape:connector-curvature="0"
   sodipodi:nodetypes="ccccccccccccccccccccccccccccccccccccccccccccscccccccccccccccccccccccccccccsccccccccccccccccccccccccccccc"
   fill="#264190"
   stroke="#FFFFFF"
   stroke-width="1.25"
   d="  M602.217,452.255l-3.284-3.166l1.011-5.5l-0.661-0.894l-9.263,1.007l-25.027,0.459l-0.686-2.396l0.913-8.456l3.315-5.944  l5.031-8.691l-0.573-2.397l1.256-0.682l0.459-1.952l-2.286-2.056l-0.111-1.942l-1.831-4.346l-0.146-6.339l-55.474,0.924l0.028,9.573  l0.687,9.374l0.686,3.887l2.515,4.115l0.915,5.029l4.345,5.486l0.229,3.2l0.687,0.688l-0.687,8.459l-2.973,5.028l1.601,2.059  l-0.686,2.515l-0.687,7.316l-1.372,3.2l0.122,3.616l4.688-1.521l12.113,0.207l10.347,3.557l6.466,1.132l3.719-1.455l3.233,1.133  l3.232,0.97l0.809-2.103l-3.233-1.132l-2.586,0.485l-2.748-1.617c0,0,0.161-1.293,0.809-1.455c0.646-0.161,3.071-0.97,3.071-0.97  l1.778,1.455l1.777-0.97l3.232,0.646l1.455,2.425l0.323,2.265l4.526,0.322l1.777,1.778l-0.808,1.616l-1.294,0.809l1.617,1.616  l8.405,3.557l3.558-1.293l0.97-2.425l2.587-0.646l1.777-1.454l1.294,0.97l0.808,2.91l-2.263,0.808l0.646,0.646l3.396-1.293  l2.264-3.396l0.81-0.484l-2.103-0.323l0.808-1.616l-0.16-1.455l2.102-0.484l1.132-1.293l0.646,0.808c0,0-0.162,3.072,0.646,3.072  c0.809,0,4.203,0.646,4.203,0.646l4.041,1.939l0.971,1.455h2.91l1.131,0.97l2.265-3.071v-1.455h-1.293l-3.396-2.748l-5.819-0.809  l-3.232-2.263l1.132-2.748l2.263,0.322l0.162-0.646l-1.777-0.971v-0.484h3.232l1.778-3.072l-1.294-1.938l-0.323-2.748l-1.455,0.161  l-1.938,2.102l-0.646,2.587l-3.072-0.646l-0.97-1.778l1.778-1.94l1.902-3.444l-1.061-2.412L602.217,452.255L602.217,452.255z" />
<path
   id="MS"
   inkscape:connector-curvature="0"
   sodipodi:nodetypes="ccccccccccccccccccccccccccccccccccccccccccccccccccc"
   fill="#264190"
   stroke="#FFFFFF"
   stroke-width="1.25"
   d="  M625.809,452.438l-0.254,1.257h-5.173l-1.455-0.81l-2.102-0.322l-6.79,1.939l-1.778-0.809l-2.587,4.203l-1.103,0.777l-1.123-2.488  l-1.145-3.887l-3.43-3.2l1.144-5.545l-0.686-0.914l-1.829,0.229l-7.918,0.873l-24.547,0.374l-0.771-2.227l0.873-8.377l3.117-5.673  l5.229-9.145l-0.446-2.434l1.237-0.656l0.436-1.92l-2.317-2.078l-0.114-2.143l-1.836-4.121l-0.108-5.963l1.327-2.479l-0.224-3.416  l-1.771-3.082l1.526-1.482l-1.57-2.5l0.457-1.652l1.578-6.525l2.484-2.036l-0.642-2.367l3.658-5.302l2.832-1.356l-0.223-1.676  l-0.288-1.681l2.877-5.567l2.346-1.23l0.151-0.895l37.344-3.881l0.186,6.283l0.161,16.65l-0.808,31.038l-0.162,14.064l2.748,18.753  L625.809,452.438L625.809,452.438z" />
<path
   id="IA"
   inkscape:connector-curvature="0"
   sodipodi:nodetypes="ccccccccccccccccccccccccccccccccccccccccccccccccccccccc"
   fill="#264190"
   stroke="#FFFFFF"
   stroke-width="1.25"
   d="  M563.441,192.678l0.265,2.786l2.224,0.577l0.954,1.225l0.5,1.855l3.793,3.359l0.687,2.391l-0.675,3.425l-1.582,3.232l-0.8,2.742  l-2.173,1.602l-1.716,0.572l-5.579,1.86l-1.392,3.849l0.729,1.372l1.841,1.683l-0.282,4.037l-1.764,1.538l-0.771,1.643l0.127,2.776  l-1.886,0.458l-1.626,1.105l-0.278,1.353l0.278,2.115l-1.552,1.116l-2.471-3.133l-1.263-2.45l-65.735,2.515l-0.918,0.166  l-2.053-4.516l-0.229-6.63l-1.601-4.115l-0.687-5.258l-2.285-3.658l-0.915-4.801l-2.743-7.545l-1.145-5.373l-1.371-2.172  l-1.601-2.743l1.954-4.844l1.372-5.715l-2.744-2.058l-0.457-2.744l0.915-2.515h1.714l82.654-1.27l0.834,4.183l2.253,1.561  l0.256,1.423l-2.029,3.39l0.19,3.206l2.515,3.798l2.527,1.294l3.079,0.503L563.441,192.678z" />
<path
   id="MN"
   inkscape:connector-curvature="0"
   sodipodi:nodetypes="ccccccccccccccccccccccccccccccccccccccccccccccccccccccccccccccccccccccccccccccccccccccccccc"
   fill="#264190"
   stroke="#FFFFFF"
   stroke-width="1.25"
   d="  M469.487,121.918l-0.457-8.459l-1.829-7.316l-1.828-13.489l-0.458-9.831l-1.828-3.429l-1.601-5.03V64.077l0.686-3.887l-1.821-5.452  l30.134,0.035l0.322-8.245l0.646-0.162l2.264,0.485l1.939,0.808l0.809,5.497l1.455,6.143l1.616,1.617h4.85l0.324,1.455l6.305,0.323  v2.102h4.851l0.322-1.293l1.133-1.132l2.263-0.646l1.294,0.97h2.909l3.88,2.587L533,67.707l2.425,0.485l0.485-0.97l1.455-0.485  l0.483,2.91l2.587,1.293l0.484-0.485l1.294,0.162v2.102l2.586,0.97h3.072l1.616-0.809l3.232-3.233l2.587-0.485l0.809,1.778  l0.484,1.293h0.971l0.97-0.808l8.892-0.323l1.778,3.071h0.646l0.715-1.084l4.438-0.371l-0.61,2.28l-3.939,1.837l-9.245,4.061  l-4.775,2.007l-3.07,2.587l-2.425,3.557l-2.265,3.879l-1.776,0.809l-4.527,5.011l-1.293,0.162l-4.328,2.757l-2.463,3.205  l-0.229,3.191l0.096,8.043l-1.376,1.688l-5.082,3.76l-2.229,5.982l2.872,2.233l0.68,3.227l-1.854,3.239l0.171,3.748l0.368,6.73  l3.028,3.002h3.328l1.893,3.133l3.379,0.503l3.859,5.671l7.087,4.117l2.144,2.875l0.671,6.439l-81.212,1.145l-0.338-35.677  l-0.457-2.972l-4.115-3.429l-1.143-1.829v-1.601l2.058-1.6l1.371-1.372L469.487,121.918L469.487,121.918z" />
<path
   id="OK"
   inkscape:connector-curvature="0"
   sodipodi:nodetypes="ccccccccccccccccccccccccccccccccccccccccccccccccccccccccccccccc"
   fill="#264190"
   stroke="#FFFFFF"
   stroke-width="1.25"
   d="  M374.593,313.915l-16.684-1.273l-0.88,10.953l20.465,1.156l32.056,1.304l-2.335,24.419l-0.457,17.832l0.229,1.602l4.344,3.658  l2.058,1.143l0.686-0.229l0.686-2.058l1.372,1.829h2.058v-1.371l2.744,1.371l-0.458,3.887l4.116,0.229l2.516,1.144l4.114,0.687  l2.516,1.829l2.286-2.059l3.43,0.687l2.515,3.43h0.914v2.286l2.286,0.686l2.287-2.286l1.828,0.688h2.516l0.914,2.515l6.301,2.079  l1.372-0.687l1.829-4.115h1.144l1.144,2.058l4.115,0.688l3.658,1.371l2.972,0.915l1.829-0.915l0.686-2.516h4.345l2.058,0.915  l2.744-2.058h1.143l0.688,1.6h4.115l1.6-2.058l1.829,0.458l2.058,2.515l3.201,1.829l3.2,0.914l1.94,1.119l-0.39-37.217  l-1.371-10.976l-0.16-8.871l-1.439-6.538l-0.778-7.181l-0.068-3.814l-12.137,0.317l-46.41-0.457l-45.039-2.058L374.593,313.915  L374.593,313.915z" />
<path
   id="TX"
   inkscape:connector-curvature="0"
   sodipodi:nodetypes="ccccccccccccccccccccccccccccccccccccccccccccccccccccccccccccccccccccccccccccccccccccccccccccccccccccccccccccccccccccccccccccccccccccccccccccccccccccccccccccccccccccccccccccccccccccccccccc"
   fill="#264190"
   stroke="#FFFFFF"
   stroke-width="1.25"
   d="  M355.714,323.667l22.691,1.086l31.092,1.145l-2.334,23.455l-0.297,18.153l0.068,2.082l4.344,3.818l1.987,1.446l1.184-0.561  l0.374-1.817l1.14,1.805l2.112,0.044l-0.003-1.447l1.67,0.968l1.139,0.408l-0.359,3.968l4.088,0.094l2.925,1.197l3.955,0.525  l2.381,2.079l2.125-2.076l3.725,0.614l2.222,3.226l1.074,0.32l-0.16,1.966l2.214,0.792l2.33-2.055l2.134,0.614l2.229,0.035  l0.935,2.437l6.328,2.113l1.593-0.767l1.489-4.178h0.341l0.906,0.081l1.229,2.068l3.93,0.665l3.337,1.123l3.427,1.196l1.841-0.976  l0.714-2.516l4.453,0.044l1.809,0.932l2.8-2.106l1.104,0.044l0.851,1.605h4.056l1.519-2.028l1.868,0.407l1.945,2.402l3.521,2.044  l2.859,0.811l1.514,0.8l2.446,1.997l3.043-1.327l2.69,1.14l0.563,6.104l-0.04,9.703l0.688,9.533l0.701,3.604l2.676,4.42l0.897,4.95  l4.216,5.538l0.196,3.146l0.746,0.785l-0.729,8.381l-2.871,5.006l1.532,2.152l-0.631,2.339l-0.669,7.403l-1.505,3.338l0.295,3.503  l-5.665,1.585l-9.861,4.526l-0.97,1.939l-2.586,1.939l-2.102,1.455l-1.294,0.808l-5.658,5.335l-2.748,2.103l-5.335,3.233  l-5.658,2.425l-6.305,3.396l-1.778,1.454l-5.819,3.558l-3.395,0.646l-3.881,5.497l-4.041,0.323l-0.97,1.938l2.263,1.94l-1.455,5.496  l-1.293,4.525l-1.132,3.88l-0.809,4.526l0.809,2.426l1.777,6.951l0.972,6.144l1.776,2.748l-0.97,1.454l-3.071,1.94l-5.657-3.88  l-5.496-1.132l-1.294,0.484l-3.233-0.646l-4.203-3.072l-5.173-1.131l-7.598-3.396l-2.102-3.88l-1.293-6.466l-3.233-1.939  l-0.646-2.264l0.646-0.646l0.323-3.396l-1.293-0.646l-0.647-0.97l1.293-4.365l-1.617-2.265l-3.233-1.293l-3.395-4.363l-3.557-6.629  l-4.203-2.587l0.162-1.939l-5.334-12.286l-0.809-4.203l-1.778-1.938l-0.162-1.455l-5.981-5.335l-2.586-3.071v-1.132l-2.586-2.103  l-6.79-1.132l-7.436-0.646l-3.072-2.265l-4.526,1.778l-3.557,1.455l-2.263,3.233l-0.97,3.718l-4.365,6.144l-2.425,2.425l-2.586-0.97  l-1.778-1.132l-1.94-0.646l-3.88-2.264v-0.646l-1.778-1.939l-5.173-2.102l-7.436-7.761l-2.263-4.688V454.2l-3.233-6.467  l-0.485-2.748l-1.617-0.97l-1.132-2.103l-5.011-2.102l-1.293-1.617l-7.113-7.921l-1.293-3.233l-4.688-2.263l-1.455-4.365  l-2.586-2.91l-1.94-0.483l-0.649-4.679l8.002,0.687l29.035,2.743l29.035,1.601l2.234-19.462l3.886-55.555l1.601-18.747l1.372,0.027   M455.943,553.302l-0.565-7.112l-2.748-7.194l-0.565-7.032l1.535-8.244l3.313-6.871l3.477-5.415l3.152-3.557l0.646,0.242  l-4.771,6.628l-4.364,6.548l-2.021,6.628l-0.323,5.173l0.89,6.145l2.587,7.192l0.484,5.174l0.162,1.454L455.943,553.302  L455.943,553.302z" />
<path
   id="NM"
   inkscape:connector-curvature="0"
   sodipodi:nodetypes="ccccccccccccccc"
   fill="#264190"
   stroke="#FFFFFF"
   stroke-width="1.25"
   d="  M282.402,417.106l-0.775-4.748l8.644,0.524l30.172,2.946l27.268,1.688l2.215-18.707l3.857-55.876l1.738-19.39l1.572,0.129  l0.825-11.163l-104.004-10.636L236.417,422.31l15.46,1.989l1.293-10.022L282.402,417.106L282.402,417.106z" />
<path
   id="KS"
   inkscape:connector-curvature="0"
   sodipodi:nodetypes="ccccccccccccccccccccc"
   fill="#264190"
   stroke="#FFFFFF"
   stroke-width="1.25"
   d="  M502.131,317.474l-12.618,0.205l-46.09-0.457l-44.557-2.058l-24.63-1.258l3.894-64.595l22.083,0.675l40.29,0.841l44.301,0.988h5.097  l2.185,2.162l2.018-0.021l1.641,1.012l-0.063,3.009l-1.827,1.726l-0.334,2.232l1.845,3.402l2.952,3.195l2.326,1.614l1.302,11.241  L502.131,317.474z" />
<path
   id="NE"
   inkscape:connector-curvature="0"
   sodipodi:nodetypes="ccccccccccccccccccccccccccccccccccccc"
   fill="#264190"
   stroke="#FFFFFF"
   stroke-width="1.25"
   d="  M480.348,233.794l3.23,7.02l-0.128,2.302l3.459,5.494l2.719,3.152h-5.049l-43.482-0.939l-40.787-0.89l-22.252-0.784l1.073-21.328  l-32.318-2.92l4.344-44.01l15.546,1.029l20.119,1.143l17.833,1.143l23.776,1.144l10.746-0.458l2.059,2.286l4.801,2.972l1.143,0.915  l4.346-1.372l3.886-0.458l2.744-0.229l1.829,1.372l4.057,1.601l2.973,1.6l0.457,1.601l0.915,2.058h1.828l0.799,0.046l0.895,4.682  l2.921,8.468l0.572,3.757l2.522,3.774l0.569,5.114l1.606,4.241L480.348,233.794L480.348,233.794z" />
<path
   id="SD"
   inkscape:connector-curvature="0"
   sodipodi:nodetypes="ccccccccccccccccccccccccccccccccccccc"
   fill="#264190"
   stroke="#FFFFFF"
   stroke-width="1.25"
   d="  M470.697,197.118l-0.048-0.581l-2.896-4.846l1.86-4.712l1.491-5.887l-2.78-2.08l-0.386-2.743l0.793-2.555l3.188,0.015l-0.123-5.006  l-0.334-30.174l-0.617-3.768l-4.072-3.331l-0.981-1.677l-0.063-1.609l2.021-1.529l1.532-1.666l0.245-2.657l-58.257-1.6  l-54.799-3.449l-5.325,63.691l14.59,0.904l19.95,1.206l17.743,0.928l23.777,1.304l11.981-0.425l1.967,2.245l5.194,3.253l0.765,0.723  l4.541-1.453l6.541-0.615l1.675,1.336l4.205,1.596l2.944,1.636l0.398,1.484l1.04,2.241L470.697,197.118L470.697,197.118z" />
<path
   id="ND"
   inkscape:connector-curvature="0"
   sodipodi:nodetypes="ccccccccccccccccc"
   fill="#264190"
   stroke="#FFFFFF"
   stroke-width="1.25"
   d="  M469.556,122.012l-0.614-8.434l-1.678-6.816l-1.892-13.024l-0.457-10.987l-1.74-3.077l-1.756-5.194l0.031-10.444l0.623-3.824  l-1.834-5.468l-28.644-0.564l-18.591-0.646l-26.512-1.293l-22.946-2.134l-6.994,67.177l54.933,3.344L469.556,122.012  L469.556,122.012z" />
<path
   id="WY"
   inkscape:connector-curvature="0"
   sodipodi:nodetypes="ccccc"
   fill="#264190"
   stroke="#FFFFFF"
   stroke-width="1.25"
   d="  M354.626,136.37l-106.742-13.457l-14.083,88.458l113.265,13.585L354.626,136.37z" />
<path
   id="MT"
   inkscape:connector-curvature="0"
   sodipodi:nodetypes="ccccccccccccccccccccccccccccccccccccccccccccccc"
   fill="#264190"
   stroke="#FFFFFF"
   stroke-width="1.25"
   d="  M363.459,50.063l-30.674-2.808l-29.261-3.557l-29.26-4.041l-32.332-5.335l-18.429-3.396l-32.724-6.933L186.3,45.342l3.429,7.544  l-1.372,4.572l1.829,4.573l3.201,1.372l4.621,10.77l2.695,3.176l0.458,1.143l3.429,1.144l0.457,2.058l-7.087,17.604v2.515  l2.515,3.201h0.915l4.801-2.972l0.686-1.143l1.601,0.686l-0.229,5.258l2.743,12.574l2.972,2.515l0.915,0.686l1.829,2.286  l-0.458,3.429l0.686,3.43l1.143,0.914l2.286-2.286h2.744l3.201,1.601l2.515-0.915h4.115l3.658,1.6l2.743-0.457l0.458-2.972  l2.972-0.686l1.372,1.372l0.457,3.201l1.426,0.834l1.887-11.035l106.746,13.429L363.459,50.063L363.459,50.063z" />
<path
   id="CO"
   inkscape:connector-curvature="0"
   sodipodi:nodetypes="ccccc"
   fill="#264190"
   stroke="#FFFFFF"
   stroke-width="1.25"
   d="  M374.282,314.059l4.903-86.325L265.796,215.09l-12.214,87.939L374.282,314.059z" />
<path
   id="ID"
   inkscape:connector-curvature="0"
   sodipodi:nodetypes="ccccccccccccccccccccccccccccccccccccccccccccccccccccccccccc"
   fill="#264190"
   stroke="#FFFFFF"
   stroke-width="1.25"
   d="  M142.729,169.578l8.771-35.221l1.372-4.229l2.515-5.944l-1.257-2.286l-2.515,0.114l-0.8-1.029l0.457-1.143l0.343-3.086l4.458-5.487  l1.829-0.458l1.144-1.143l0.571-3.201l0.915-0.686l3.887-5.83l3.886-4.344l0.229-3.772l-3.43-2.629l-1.535-4.401l13.625-63.342  l13.518,2.528l-4.408,21.383l3.56,7.485l-1.581,4.661l1.97,4.641l3.138,1.255l3.835,9.557l3.513,4.437l0.507,1.143l3.341,1.144  l0.369,2.097l-6.971,17.376l-0.165,2.566l2.631,3.321l0.905-0.049l4.911-3.025l0.678-1.095l1.562,0.659l-0.278,5.354l2.739,12.583  l3.918,3.178l1.681,2.166l-0.717,4.083l1.066,2.808l1.062,1.091l2.479-2.352l2.848,0.049l2.919,1.335l2.78-0.682l3.794-0.16  l3.979,1.6l2.744-0.297l0.497-3.037l2.933-0.765l1.26,1.516l0.441,2.945l1.424,1.213l-8.386,53.609  C237.688,187.782,149.722,171.082,142.729,169.578L142.729,169.578z" />
<path
   id="UT"
   inkscape:connector-curvature="0"
   sodipodi:nodetypes="cccccccccc"
   fill="#264190"
   stroke="#FFFFFF"
   stroke-width="1.25"
   d="  M253.749,303.199L170,291.327l20.587-112.542l46.78,8.745l-1.485,10.63l-2.312,13.173l7.808,0.928l16.407,1.805l8.211,0.856  L253.749,303.199z" />
<path
   id="AZ"
   inkscape:connector-curvature="0"
   sodipodi:nodetypes="cccccccccccccccccccccccccccccccccccccccccccccc"
   fill="#264190"
   stroke="#FFFFFF"
   stroke-width="1.25"
   d="  M139.161,375.723l-2.627,2.158l-0.323,1.455l0.485,0.97l18.915,10.67l12.125,7.6l14.711,8.566l16.813,10.023l12.286,2.425  l24.951,2.705l17.256-119.128l-83.736-11.917l-3.092,16.413l-1.606,0.015l-1.714,2.629l-2.515-0.113l-1.257-2.743l-2.743-0.343  l-0.915-1.145h-0.915l-0.915,0.572l-1.943,1.027l-0.114,6.975l-0.229,1.714l-0.572,12.574L150,330.997l-0.572,3.315l2.744,4.914  l1.257,5.83l0.8,1.029l1.029,0.571l-0.114,2.286l-1.601,1.372l-3.429,1.715l-1.943,1.941l-1.486,3.658l-0.572,4.916l-2.858,2.743  l-2.058,0.686l0.136,0.83l-0.457,1.715l0.457,0.801l3.658,0.57l-0.572,2.744l-1.486,2.172L139.161,375.723L139.161,375.723z" />
<path
   id="NV"
   inkscape:connector-curvature="0"
   sodipodi:nodetypes="cccccccccccccccccc"
   fill="#264190"
   stroke="#FFFFFF"
   stroke-width="1.25"
   d="  M190.643,178.669l-23.639,128.823l-1.833,0.349l-1.573,2.406l-2.373,0.011l-1.472-2.743l-2.619-0.379l-0.771-1.106l-1.038-0.055  l-2.778,1.646l-0.31,6.785l-0.362,5.776l-0.349,8.594l-1.447,2.089l-2.438-1.074l-69.08-104.201l18.989-67.585L190.643,178.669  L190.643,178.669z" />
<path
   id="OR"
   inkscape:connector-curvature="0"
   sodipodi:nodetypes="ccccccccccccccccccccccccccccccccccccccccccccccccccc"
   fill="#264190"
   stroke="#FFFFFF"
   stroke-width="1.25"
   d="  M142.972,168.625l8.85-34.802l1.051-4.229l2.354-5.623l-0.615-1.163l-2.515-0.046l-1.281-1.67l0.457-1.464l0.503-3.247l4.458-5.487  l1.829-1.1l1.143-1.143l1.486-3.565l4.047-5.669l3.565-3.862l0.229-3.451l-3.269-2.469l-1.784-4.643l-12.664-3.612l-15.089-3.543  l-15.432,0.114l-0.458-1.372l-5.487,2.058l-4.458-0.572l-2.4-1.6l-1.258,0.686l-4.687-0.229l-1.715-1.372l-5.258-2.058l-0.8,0.114  L89.43,72.12l-1.943,1.829l-6.173-0.343l-5.944-4.115l0.686-0.8l0.229-7.773L74,57.031l-4.115-0.572l-0.686-2.515l-2.354-0.467  l-5.798,2.059l-2.263,6.466L55.55,72.026l-3.233,6.466l-5.011,14.064l-6.466,13.58l-8.083,12.609l-1.94,2.91l-0.809,8.568  l0.386,12.08L142.972,168.625L142.972,168.625z" />
<path
   id="WA"
   inkscape:connector-curvature="0"
   sodipodi:nodetypes="cccccccccccccccccccccccccccccccccccccccccccccccccccccccccccccccccccccccccccccccccccccscccccc"
   fill="#264190"
   stroke="#FFFFFF"
   stroke-width="1.25"
   d="  M96.323,0.706l4.365,1.455l9.7,2.748l8.568,1.94l20.046,5.658l22.956,5.658l15.223,3.207l-13.632,63.586l-12.445-3.525  l-15.508-3.571l-15.229,0.033l-0.456-1.345l-5.599,2.179l-4.595-0.736l-2.147-1.584l-1.313,0.658l-4.735-0.14l-1.699-1.35  l-5.263-2.112l-0.735,0.147l-4.389-1.525l-1.893,1.817l-6.266-0.298L75.35,69.48l0.779-0.933l0.121-7.677l-2.282-3.84l-4.115-0.607  l-0.678-2.511L66.9,53.455l-3.555,1.23l-2.264-3.219l0.324-2.91l2.748-0.323l1.617-4.042l-2.587-1.132l0.162-3.718l4.365-0.646  l-2.749-2.749l-1.455-7.113l0.646-2.91v-7.922l-1.778-3.233l2.263-9.376l2.102,0.485l2.425,2.91l2.749,2.586l3.233,1.94l4.527,2.102  l3.071,0.647l2.91,1.455l3.395,0.97l2.263-0.162V15.9l1.293-1.131l2.102-1.293l0.323,1.132l0.324,1.778l-2.264,0.485l-0.323,2.102  l1.778,1.455l1.132,2.425l0.646,1.94l1.455-0.162l0.162-1.293l-0.97-1.293l-0.485-3.233l0.808-1.778l-0.646-1.455v-2.263  l1.778-3.556l-1.132-2.587l-2.425-4.85l0.323-0.809L96.323,0.706z M86.867,6.685l2.021-0.162l0.485,1.374l1.536-1.617h2.344  l0.809,1.536l-1.536,1.698l0.646,0.808l-0.728,2.021l-1.374,0.404c0,0-0.889,0.081-0.889-0.242c0-0.323,1.455-2.586,1.455-2.586  l-1.698-0.566l-0.323,1.455l-0.728,0.647L87.352,9.19L86.867,6.685z" />
<path
   id="CA"
   inkscape:connector-curvature="0"
   sodipodi:nodetypes="ccccccccccccccccccccccccccccccccccccccccccccccccccccccccccccccccccccccccccccccccccccccccccccccccccccccccccccccccccccccccccccccccscc"
   fill="#264190"
   stroke="#FFFFFF"
   stroke-width="1.25"
   d="  M138.944,375.292l3.94-0.488l1.486-2.012l0.544-2.941l-3.551-0.59l-0.514-0.668l0.477-2.032l-0.159-0.59l1.923-0.62l3.042-2.832  l0.582-4.994l1.38-3.402l1.943-2.166l3.519-1.59l1.654-1.605l0.069-2.107l-0.994-0.58l-1.023-1.072l-1.155-5.849l-2.685-4.83  l0.566-3.505l-2.42-1.029l-69.06-104.181l18.902-67.602l-67.08-15.698l-1.507,4.733l-0.162,7.437l-5.173,11.801l-3.072,2.586  l-0.323,1.132l-1.778,0.808l-1.455,4.203l-0.809,3.233l2.749,4.203l1.616,4.203l1.132,3.557l-0.323,6.466l-1.778,3.072l-0.646,5.82  l-0.97,3.718l1.778,3.88l2.748,4.527l2.263,4.85l1.293,4.042l-0.323,3.233l-0.323,0.485v2.102l5.658,6.305l-0.485,2.425  l-0.646,2.263l-0.646,1.94l0.162,8.245l2.102,3.718l1.94,2.587l2.748,0.485l0.97,2.748l-1.132,3.557l-2.102,1.617h-1.131  l-0.809,3.88l0.485,2.91l3.233,4.365l1.617,5.335l1.455,4.688l1.293,3.071l3.395,5.82l1.455,2.587l0.485,2.909l1.617,0.971v2.425  l-0.809,1.939l-1.778,7.112l-0.485,1.939l2.425,2.749l4.203,0.483l4.527,1.778l3.88,2.103h2.91l2.91,3.07l2.587,4.852l1.131,2.263  l3.88,2.102l4.85,0.81l1.455,2.102l0.647,3.233l-1.455,0.646l0.323,0.971l3.233,0.809l2.748,0.161l3.16-1.688l3.88,4.203  l0.808,2.265l2.586,4.203l0.323,3.232v9.376l0.485,1.778l10.023,1.455l19.722,2.748L138.944,375.292L138.944,375.292z   M50.809,331.575l1.293,1.536l-0.162,1.293l-3.233-0.081l-0.566-1.212l-0.646-1.455L50.809,331.575L50.809,331.575z M52.749,331.575  l1.212-0.646l3.557,2.103l3.072,1.212l-0.889,0.646l-4.527-0.242l-1.616-1.616L52.749,331.575L52.749,331.575z M73.442,351.379  l1.778,2.344l0.808,0.971l1.536,0.565l0.566-1.455l-0.97-1.777l-2.667-2.021l-1.051,0.161V351.379z M71.987,360.027l1.778,3.151  l1.212,1.94l-1.455,0.242l-1.293-1.212c0,0-0.728-1.455-0.728-1.859s0-2.183,0-2.183L71.987,360.027L71.987,360.027z" />

<g
   style="font-size:20px;font-style:normal;font-variant:normal;font-stretch:normal;line-height:105%;letter-spacing:0px;word-spacing:0px;fill:#ffffff;fill-opacity:1;stroke:none; font-weight:600; font-family:Trebuchet MS, Helvetica, sans-serif;-inkscape-font-specification:'Trebuchet MS, Helvetica, sans-serif'"
   font-size="20"
   id="g92">

	<text
   id="text50"
   transform="matrix(1 0 0 1 746.1709 485.5049)"
   fill="#FFFFFF">FL</text>





	<text
   id="text52"
   transform="matrix(1 0 0 1 419.1631 452.5781)"
   fill="#FFFFFF">TX</text>





	<text
   id="text54"
   transform="matrix(1 0 0 1 283.9741 368.3682)"
   fill="#FFFFFF">NM</text>





	<text
   id="text56"
   transform="matrix(1 0 0 1 183.9741 357.8418)"
   fill="#FFFFFF">AZ</text>





	<text
   id="text58"
   transform="matrix(1 0 0 1 97.8164 480.21)"
   fill="#FFFFFF">AK</text>





	<text
   id="text60"
   transform="matrix(1 0 0 1 56.3423 284.1572)"
   fill="#FFFFFF">CA</text>





	<text
   id="text62"
   transform="matrix(1 0 0 1 119.5576 235.4248)"
   fill="#FFFFFF">NV</text>





	<text
   id="text64"
   transform="matrix(1 0 0 1 201.0391 257.6465)"
   fill="#FFFFFF">UT</text>





	<text
   id="text66"
   transform="matrix(1 0 0 1 303.187 272.4609)"
   fill="#FFFFFF">CO</text>





	<text
   id="text68"
   transform="matrix(1 0 0 1 83.7373 124.1377)"
   fill="#FFFFFF">OR</text>





	<text
   id="text70"
   transform="matrix(1 0 0 1 108.4463 52.0908)"
   fill="#FFFFFF">WA</text>





	<text
   id="text72"
   transform="matrix(1 0 0 1 180.1577 152.0908)"
   fill="#FFFFFF">ID</text>





	<text
   id="text74"
   transform="matrix(1 0 0 1 355.123 565.6836)"
   fill="#FFFFFF">HI</text>





	<text
   id="text76"
   transform="matrix(1 0 0 1 444.6372 357.6133)"
   fill="#FFFFFF">OK</text>





	<text
   id="text78"
   transform="matrix(1 0 0 1 263.9922 86.6455)"
   fill="#FFFFFF">MT</text>





	<text
   id="text80"
   transform="matrix(1 0 0 1 283.3467 180.1934)"
   fill="#FFFFFF">WY</text>





	<text
   id="text82"
   transform="matrix(1 0 0 1 401.0889 93.0967)"
   fill="#FFFFFF">ND</text>





	<text
   id="text84"
   transform="matrix(1 0 0 1 401.0889 160.4512)"
   fill="#FFFFFF">SD</text>





	<text
   id="text86"
   transform="matrix(1 0 0 1 409.1533 226.9678)"
   fill="#FFFFFF">NE</text>





	<text
   id="text88"
   transform="matrix(1 0 0 1 426.895 291.4844)"
   fill="#FFFFFF">KS</text>





	<text
   id="text90"
   transform="matrix(1 0 0 1 483.3467 126.9678)"
   fill="#FFFFFF">MN</text>





	<text
   id="text92"
   transform="matrix(1 0 0 1 504.3145 212.4521)"
   fill="#FFFFFF">IA</text>





	<text
   id="text94"
   transform="matrix(1 0 0 1 520.6475 294.2334)"
   fill="#FFFFFF">MO</text>





	<text
   id="text96"
   transform="matrix(1 0 0 1 530.1211 370.5166)"
   fill="#FFFFFF">AR</text>





	<text
   id="text98"
   transform="matrix(1 0 0 1 531.7344 446.3223)"
   fill="#FFFFFF">LA</text>





	<text
   id="text100"
   transform="matrix(1 0 0 1 583.7344 407.6133)"
   fill="#FFFFFF">MS</text>





	<text
   id="text102"
   transform="matrix(1 0 0 1 638.1855 402.7744)"
   fill="#FFFFFF">AL</text>





	<text
   id="text104"
   transform="matrix(1 0 0 1 696.25 397.9355)"
   fill="#FFFFFF">GA</text>





	<text
   id="text106"
   transform="matrix(1 0 0 1 743.0244 370.5166)"
   fill="#FFFFFF">SC</text>





	<text
   id="text108"
   transform="matrix(1 0 0 1 582.417 252.4951)"
   fill="#FFFFFF">IL</text>





	<text
   id="text110"
   transform="matrix(1 0 0 1 560.8594 157.292)"
   fill="#FFFFFF">WI</text>





	<text
   id="text112"
   transform="matrix(1 0 0 1 642.5664 182.6279)"
   fill="#FFFFFF">MI</text>





	<text
   id="text114"
   transform="matrix(1 0 0 1 631.041 248.4736)"
   fill="#FFFFFF">IN</text>





	<text
   id="text116"
   transform="matrix(1 0 0 1 680.4492 235.9736)"
   fill="#FFFFFF">OH</text>





	<text
   id="text118"
   transform="matrix(1 0 0 1 637.2676 341.3828)"
   fill="#FFFFFF">TN</text>





	<text
   id="text120"
   transform="matrix(1 0 0 1 662.8594 299.6104)"
   fill="#FFFFFF">KY</text>





	<text
   id="text122"
   transform="matrix(1 0 0 1 771.248 326.9463)"
   fill="#FFFFFF">NC</text>





	<text
   id="text124"
   transform="matrix(1 0 0 1 719.0342 275.7461)"
   fill="#FFFFFF">WV</text>





	<text
   id="text126"
   transform="matrix(1 0 0 1 769.0342 282.5645)"
   fill="#FFFFFF">VA</text>





	<text
   id="text128"
   transform="matrix(1 0 0 1 765.293 209.9004)"
   fill="#FFFFFF">PA</text>





	<text
   id="text130"
   transform="matrix(1 0 0 1 801.9883 157.292)"
   fill="#FFFFFF">NY</text>





	<text
   id="text132"
   transform="matrix(1 0 0 1 871.5801 82.5645)"
   fill="#FFFFFF">ME</text>






</g>

<g
   id="g3167">
	
		<path
   id="NH"
   inkscape:connector-curvature="0"
   sodipodi:nodetypes="ccccccccccccccccccccccccccccccccc"
   d="m 875.049,135.519 0.869,-1.077 1.09,-3.291 -2.543,-0.914 -0.483,-3.071 -3.881,-1.132 -0.322,-2.748 -7.275,-23.441 -4.604,-14.543 -0.896,-0.005 -0.646,1.617 -0.647,-0.485 -0.97,-0.97 -1.455,1.94 -0.048,5.032 0.312,5.667 1.939,2.748 v 4.042 l -3.718,5.063 -2.587,1.131 v 1.132 l 1.132,1.778 v 8.568 l -0.81,9.215 -0.161,4.85 0.971,1.293 -0.162,4.526 -0.484,1.778 0.969,0.709 16.787,-4.425 2.177,-0.603 1.843,-2.773 z"
   style="fill:#264190;stroke:#ffffff;stroke-width:1.25;fill-opacity:1" />
	<path
   id="rect3123"
   d="m 793.445,39.197 h 44.541 c 2.888,0 5.229,2.226 5.229,4.971 v 20.057 c 0,2.746 -2.342,4.972 -5.229,4.972 h -44.541 c -2.89,0 -5.229,-2.226 -5.229,-4.972 V 44.168 c 0,-2.745 2.341,-4.971 5.229,-4.971 z"
   inkscape:connector-curvature="0"
   style="fill:#264190;fill-opacity:1;stroke:#ffffff;stroke-width:1.25" />
</g>
<g
   id="g3171">
	
		<path
   id="VT"
   inkscape:connector-curvature="0"
   sodipodi:nodetypes="ccccccccccccccccccccccccccccc"
   d="m 838.734,147.152 0.315,-5.346 -2.891,-10.784 -0.646,-0.323 -2.91,-1.293 0.81,-2.91 -0.81,-2.102 -2.699,-4.64 0.97,-3.88 -0.808,-5.173 -2.426,-6.466 -0.806,-4.922 26.419,-6.732 0.309,5.522 1.918,2.743 v 4.041 l -3.709,5.058 -2.586,1.143 -0.011,1.121 1.311,1.52 -0.312,8.098 -0.608,9.259 -0.229,5.557 0.97,1.293 -0.161,4.57 -0.484,1.69 1.015,0.727 -7.438,1.507 z"
   style="fill:#264190;stroke:#ffffff;stroke-width:1.25;fill-opacity:1" />
	<path
   id="rect3123-6"
   d="m 728.014,39.197 h 44.541 c 2.89,0 5.229,2.226 5.229,4.971 v 20.057 c 0,2.746 -2.341,4.972 -5.229,4.972 h -44.541 c -2.888,0 -5.229,-2.226 -5.229,-4.972 V 44.168 c -10e-4,-2.745 2.341,-4.971 5.229,-4.971 z"
   inkscape:connector-curvature="0"
   style="fill:#264190;fill-opacity:1;stroke:#ffffff;stroke-width:1.25" />
</g>
<g
   id="g3179">
	
		<path
   id="RI"
   inkscape:connector-curvature="0"
   sodipodi:nodetypes="ccccccccccc"
   d="m 868.32,171.989 -3.696,-14.956 6.27,-1.845 2.191,1.927 3.307,4.32 2.688,4.402 -2.999,1.625 -1.294,-0.162 -1.131,1.778 -2.427,1.94 z"
   style="fill:#264190;fill-opacity:1;stroke:#ffffff;stroke-width:1.25" />
	<path
   id="rect3123-5"
   inkscape:connector-curvature="0"
   d="m 911.445,161.094 h 44.541 c 2.888,0 5.229,2.226 5.229,4.972 v 20.057 c 0,2.746 -2.342,4.972 -5.229,4.972 h -44.541 c -2.89,0 -5.229,-2.226 -5.229,-4.972 v -20.057 c 0,-2.747 2.341,-4.972 5.229,-4.972 z"
   style="fill:#264190;fill-opacity:1;stroke:#ffffff;stroke-width:1.25" />
</g>
<g
   id="g3183">
	
		<path
   id="CT"
   inkscape:connector-curvature="0"
   sodipodi:nodetypes="cccccccccccccccc"
   fill="#264190"
   stroke="#FFFFFF"
   stroke-width="1.25"
   d="   M868.318,171.957l-3.679-14.879l-4.719,0.92l-21.229,4.743l1,3.226l1.455,7.275l0.177,8.967l-1.22,2.175l1.921,1.933l4.271-3.906   l3.558-3.233l1.938-2.102l0.81,0.646l2.747-1.455l5.174-1.132L868.318,171.957L868.318,171.957z" />
	<path
   id="rect3123-63"
   inkscape:connector-curvature="0"
   fill="#264190"
   stroke="#FFFFFF"
   stroke-width="1.25"
   d="M911.445,198.094   h44.541c2.888,0,5.229,2.226,5.229,4.972v20.057c0,2.746-2.342,4.972-5.229,4.972h-44.541c-2.89,0-5.229-2.226-5.229-4.972v-20.057   C906.216,200.319,908.557,198.094,911.445,198.094z" />
</g>
<g
   id="g3187">
	
		<path
   id="NJ"
   inkscape:connector-curvature="0"
   sodipodi:nodetypes="ccccccccccccccccccccccccccccccccccccccccccccccccccc"
   fill="#264190"
   stroke="#FFFFFF"
   stroke-width="1.25"
   d="   M823.93,181.554l-2.322,2.734v3.072l-1.939,3.071l-0.162,1.617l1.294,1.293l-0.162,2.425l-2.263,1.132l0.808,2.748l0.162,1.131   l2.748,0.324l0.97,2.586l3.558,2.425l2.425,1.617v0.808l-2.983,2.697l-1.615,2.263l-1.455,2.748l-2.264,1.293l-0.463,1.603   l-0.242,1.212l-0.608,2.607l1.092,2.244l3.233,2.91l4.85,2.263l4.042,0.647l0.161,1.455l-0.809,0.97l0.323,2.748h0.809l2.102-2.425   l0.809-4.85l2.748-4.042l3.072-6.467l1.131-5.496l-0.646-1.132l-0.161-9.376l-1.617-3.395l-1.132,0.808l-2.748,0.323l-0.484-0.485   l1.131-0.97l2.103-1.94l0.063-1.094l-0.385-3.434l0.573-2.748l-0.117-1.969l-2.808-1.75l-5.093-1.176l-4.138-1.381L823.93,181.554   L823.93,181.554z" />
	<path
   id="rect3123-9"
   inkscape:connector-curvature="0"
   fill="#264190"
   stroke="#FFFFFF"
   stroke-width="1.25"
   d="M911.445,235.094   h44.541c2.888,0,5.229,2.226,5.229,4.972v20.057c0,2.746-2.342,4.972-5.229,4.972h-44.541c-2.89,0-5.229-2.226-5.229-4.972v-20.057   C906.216,237.319,908.557,235.094,911.445,235.094z" />
</g>
<g
   id="g3191">
	
		<path
   id="DE"
   inkscape:connector-curvature="0"
   sodipodi:nodetypes="cccccccccccccccccccc"
   fill="#264190"
   stroke="#FFFFFF"
   stroke-width="1.25"
   d="   M819.876,221.373l0.368-2.147l0.375-1.691l-1.623,0.397l-1.615,0.468l-2.206,1.764l1.72,5.043l2.265,5.658l2.102,9.7l1.616,6.305   l5.012-0.162l6.144-1.181l-2.266-7.386l-0.97,0.485l-3.557-2.425l-1.778-4.688l-1.939-3.557l-3.146-2.87l-0.864-2.098   L819.876,221.373z" />
	<path
   id="rect3123-4"
   inkscape:connector-curvature="0"
   fill="#264190"
   stroke="#FFFFFF"
   stroke-width="1.25"
   d="M911.445,272.094   h44.541c2.888,0,5.229,2.226,5.229,4.972v20.057c0,2.746-2.342,4.972-5.229,4.972h-44.541c-2.89,0-5.229-2.226-5.229-4.972v-20.057   C906.216,274.319,908.557,272.094,911.445,272.094z" />
</g>
<g
   id="g3205">
	
		<path
   id="MD"
   inkscape:connector-curvature="0"
   sodipodi:nodetypes="ccccccccccccccccccccccccccccccccccccccccccccccccccsccccccccccccccccccccccccccccsccc"
   fill="#264190"
   stroke="#FFFFFF"
   stroke-width="1.25"
   d="   M834.042,245.508l-6.009,1.204l-5.144,0.118l-1.844-6.923l-1.925-9.169l-2.572-6.188l-1.289-4.398l-7.506,1.623l-14.876,2.823   l-37.452,7.551l1.132,5.012l0.971,5.658l0.322-0.323l2.103-2.425l2.264-2.618l2.425-0.615l1.455-1.455l1.778-2.586l1.293,0.646   l2.91-0.323l2.587-2.102l2.007-1.453l1.845-0.485l1.646,1.13l2.91,1.455l1.938,1.778l1.213,1.536l4.122,1.698v2.91l5.496,1.293   l1.146,0.542l1.412-2.028l2.882,1.97l-1.278,2.482l-0.765,3.985l-1.778,2.587v2.102l0.646,1.778l5.063,1.355l4.312-0.062l3.07,0.97   l2.103,0.323l0.971-2.102l-1.455-2.102v-1.778l-2.425-2.102l-2.103-5.496l1.293-5.335l-0.161-2.102l-1.293-1.293   c0,0,1.454-1.617,1.454-2.263s0.485-2.102,0.485-2.102l1.939-1.293l1.939-1.616l0.484,0.97l-1.455,1.617l-1.293,3.718l0.323,1.131   l1.777,0.323l0.485,5.497l-2.103,0.97l0.323,3.556l0.484-0.162l1.132-1.94l1.617,1.778l-1.617,1.293l-0.323,3.395l2.587,3.395   l3.88,0.485l1.616-0.808l3.236,4.183l1.358,0.536l6.653-2.797l2.007-4.024L834.042,245.508L834.042,245.508z M818.072,254.537   l1.132,2.506l0.161,1.778l1.132,1.859c0,0,0.889-0.889,0.889-1.212c0-0.323-0.727-3.071-0.727-3.071l-0.729-2.344L818.072,254.537z   " />
	<path
   id="rect3123-8"
   inkscape:connector-curvature="0"
   fill="#264190"
   stroke="#FFFFFF"
   stroke-width="1.25"
   d="M911.445,309.094   h44.541c2.888,0,5.229,2.227,5.229,4.973v20.057c0,2.746-2.342,4.972-5.229,4.972h-44.541c-2.89,0-5.229-2.226-5.229-4.972v-20.057   C906.216,311.319,908.557,309.094,911.445,309.094z" />
</g>
<g
   id="g3209">
	
		<path
   id="DC"
   inkscape:connector-curvature="0"
   sodipodi:nodetypes="cccccc"
   d="m 800.069,243.938 -1.858,-1.824 -1.231,-0.687 1.442,-2.021 2.889,1.948 z"
   style="fill:#264190;fill-opacity:1;stroke:#ffffff;stroke-width:1.25" />
	<path
   id="rect3123-1"
   inkscape:connector-curvature="0"
   d="m 911.445,346.094 h 44.541 c 2.888,0 5.229,2.227 5.229,4.973 v 20.057 c 0,2.746 -2.342,4.972 -5.229,4.972 h -44.541 c -2.89,0 -5.229,-2.226 -5.229,-4.972 v -20.057 c 0,-2.748 2.341,-4.973 5.229,-4.973 z"
   style="fill:#264190;fill-opacity:1;stroke:#ffffff;stroke-width:1.25" />
</g>
<g
   id="g3175">
	
		<path
   id="MA"
   inkscape:connector-curvature="0"
   sodipodi:nodetypes="ccccccccccccccccccccccccccccccccccccccccccccccccccccccccccccccc"
   d="m 893.873,166.348 2.173,-0.686 0.457,-1.714 1.028,0.114 1.028,2.286 -1.258,0.457 -3.887,0.115 z m -9.373,0.8 2.286,-2.629 h 1.601 l 1.829,1.486 -2.399,1.029 -2.174,1.029 z m -34.799,-21.988 17.646,-4.641 2.265,-0.646 1.914,-2.796 3.735,-1.664 2.891,4.413 -2.426,5.174 -0.322,1.455 1.939,2.587 1.132,-0.809 h 1.778 l 2.263,2.587 3.881,5.981 3.557,0.485 2.264,-0.97 1.777,-1.778 -0.808,-2.748 -2.103,-1.617 -1.455,0.809 -0.97,-1.293 0.484,-0.485 2.102,-0.162 1.778,0.808 1.939,2.425 0.97,2.91 0.323,2.425 -4.203,1.455 -3.88,1.94 -3.88,4.526 -1.938,1.455 v -0.97 l 2.425,-1.455 0.483,-1.778 -0.808,-3.072 -2.91,1.455 -0.809,1.455 0.484,2.264 -2.065,1 -2.747,-4.527 -3.396,-4.365 -2.069,-1.813 -6.533,1.876 -5.092,1.051 -20.677,4.592 -0.668,-4.768 0.647,-10.589 4.289,-0.889 z"
   style="fill:#264190;stroke:#ffffff;stroke-width:1.25" />
	<path
   id="rect3123-5-4"
   inkscape:connector-curvature="0"
   d="m 911.445,124.094 h 44.541 c 2.889,0 5.229,2.226 5.229,4.972 v 20.057 c 0,2.746 -2.341,4.972 -5.229,4.972 h -44.541 c -2.889,0 -5.229,-2.226 -5.229,-4.972 v -20.057 c 0,-2.747 2.342,-4.972 5.229,-4.972 z"
   style="fill:#264190;fill-opacity:1;stroke:#ffffff;stroke-width:1.25" />

<path
   id="USVI"
   inkscape:connector-curvature="0"
   d="m 911.445,446.094 h 44.541 c 2.888,0 5.229,2.227 5.229,4.973 v 20.057 c 0,2.746 -2.342,4.972 -5.229,4.972 h -44.541 c -2.89,0 -5.229,-2.226 -5.229,-4.972 v -20.057 c 0,-2.748 2.341,-4.973 5.229,-4.973 z"
   style="fill:#264190;fill-opacity:1;stroke:#ffffff;stroke-width:1.25" />
</g>

<g
   style="font-style:normal;font-variant:normal;font-weight:600;font-stretch:normal;font-size:20px;line-height:104.99999523%;font-family:'Trebuchet MS', Helvetica, sans-serif;-inkscape-font-specification:'Trebuchet MS, Helvetica, sans-serif';letter-spacing:0px;word-spacing:0px;fill:#ffffff;fill-opacity:1;stroke:none"
   font-size="20"
   id="g130">
	
	<text
   id="text158"
   transform="translate(738.041,61.6055)"
   style="fill:#ffffff">VT</text>





	<text
   id="text160"
   transform="translate(802.1396,61.6055)"
   style="fill:#ffffff">NH</text>





	<text
   id="text162"
   transform="translate(924.8105,183.6816)"
   style="fill:#ffffff">RI</text>





	<text
   id="text164"
   transform="translate(921.0273,220.6055)"
   style="fill:#ffffff">CT</text>





	<text
   id="text166"
   transform="translate(922.0059,257.502)"
   style="fill:#ffffff">NJ</text>





	<text
   id="text168"
   transform="translate(921.252,294.6563)"
   style="fill:#ffffff">DE</text>





	<text
   id="text170"
   transform="translate(920.1396,331.5537)"
   style="fill:#ffffff">MD</text>





	<text
   id="text175"
   transform="translate(919.9961,146.6045)"
   style="fill:#ffffff">MA</text>





	<text
   id="text177"
   transform="translate(920.6367,368.6055)"
   style="fill:#ffffff">DC</text>





	<text
   id="text177-6"
   y="468.6055"
   x="910.63672">USVI</text>






</g>

<path
   id="path4148"
   inkscape:connector-curvature="0"
   sodipodi:nodetypes="ccc"
   fill="none"
   stroke="#B9B9B9"
   stroke-width="1.25"
   d="  M855.499,86.916V54.197h-12.283"
   style="stroke:#264190;stroke-opacity:1" />
<path
   id="path4154"
   inkscape:connector-curvature="0"
   sodipodi:nodetypes="ccc"
   fill="none"
   stroke="#B9B9B9"
   stroke-width="1.25"
   d="  M906.216,176.094H873.24v-7.514"
   style="stroke:#264190;stroke-opacity:1" />
<path
   id="path4156"
   inkscape:connector-curvature="0"
   sodipodi:nodetypes="ccc"
   fill="none"
   stroke="#B9B9B9"
   stroke-width="1.25"
   d="  M906.216,361.094h-69.771l-36.216-118.038"
   style="stroke:#264190;stroke-opacity:1" />
<path
   id="path4158"
   inkscape:connector-curvature="0"
   sodipodi:nodetypes="cccc"
   fill="none"
   stroke="#B9B9B9"
   stroke-width="1.25"
   d="  M906.216,324.094h-58.602V250.15H833.44"
   style="stroke:#264190;stroke-opacity:1" />
<path
   id="path4160"
   inkscape:connector-curvature="0"
   sodipodi:nodetypes="cccc"
   fill="none"
   stroke="#B9B9B9"
   stroke-width="1.25"
   d="  M906.216,287.094H857.47V238.98h-26.471"
   style="stroke:#264190;stroke-opacity:1" />
<path
   id="path4166"
   inkscape:connector-curvature="0"
   sodipodi:nodetypes="ccc"
   fill="none"
   stroke="#B9B9B9"
   stroke-width="1.25"
   d="  M906.216,213.094h-48.745v-37.85"
   style="stroke:#264190;stroke-opacity:1" />
<path
   id="path4168"
   inkscape:connector-curvature="0"
   sodipodi:nodetypes="cccc"
   fill="none"
   stroke="#B9B9B9"
   stroke-width="1.25"
   d="  M906.216,250.094h-38.89v-26.227h-29.1"
   style="stroke:#264190;stroke-opacity:1" />
<path
   id="path4170"
   inkscape:connector-curvature="0"
   sodipodi:nodetypes="ccc"
   fill="none"
   stroke="#B9B9B9"
   stroke-width="1.25"
   d="  M906.216,139.094h-22.94v13.554"
   style="stroke:#264190;stroke-opacity:1" />
<path
   id="path4150"
   inkscape:connector-curvature="0"
   sodipodi:nodetypes="cccc"
   fill="none"
   stroke="#B9B9B9"
   stroke-width="1.25"
   d="  M838.416,96.865V81.284h-88.132V69.197"
   style="stroke:#264190;stroke-opacity:1" />

<path
   id="USVI-3"
   inkscape:connector-curvature="0"
   d="m 911.445,484.094 h 44.541 c 2.888,0 5.229,2.227 5.229,4.973 v 20.057 c 0,2.746 -2.342,4.972 -5.229,4.972 h -44.541 c -2.89,0 -5.229,-2.226 -5.229,-4.972 v -20.057 c 0,-2.748 2.341,-4.973 5.229,-4.973 z"
   style="fill:#264190;fill-opacity:1;stroke:#ffffff;stroke-width:1.25" /><text
   style="font-style:normal;font-variant:normal;font-weight:600;font-stretch:normal;font-size:20px;line-height:104.99999523%;font-family:'Trebuchet MS', Helvetica, sans-serif;-inkscape-font-specification:'Trebuchet MS, Helvetica, sans-serif';letter-spacing:0px;word-spacing:0px;fill:#ffffff;fill-opacity:1;stroke:none"
   id="text177-6-9"
   y="506.6055"
   x="922.63672">PR</text>

</svg>